<svg width="20" height="20" viewBox="0 0 20 20" fill="none" xmlns="http://www.w3.org/2000/svg">
<path d="M1.66663 8.33674V11.6701C1.66663 13.3367 2.49996 14.1701 4.16663 14.1701H5.35829C5.66663 14.1701 5.97496 14.2617 6.24163 14.4201L8.67496 15.9451C10.775 17.2617 12.5 16.3034 12.5 13.8284V6.1784C12.5 3.69507 10.775 2.74507 8.67496 4.06174L6.24163 5.58674C5.97496 5.74507 5.66663 5.83674 5.35829 5.83674H4.16663C2.49996 5.83674 1.66663 6.67007 1.66663 8.33674Z" stroke="#495057" stroke-width="1.5"/>
<path d="M15 6.66406C16.4833 8.63906 16.4833 11.3557 15 13.3307" stroke="#495057" stroke-width="1.5" stroke-linecap="round" stroke-linejoin="round"/>
<path d="M16.5249 4.58594C18.9332 7.79427 18.9332 12.2109 16.5249 15.4193" stroke="#495057" stroke-width="1.5" stroke-linecap="round" stroke-linejoin="round"/>
</svg>
