<svg width="25" height="24" viewBox="0 0 25 24" fill="none" xmlns="http://www.w3.org/2000/svg">
<path d="M4.75977 11.0214V15.9914C4.75977 17.8114 4.75977 17.8114 6.47977 18.9714L11.2098 21.7014C11.9198 22.1114 13.0798 22.1114 13.7898 21.7014L18.5198 18.9714C20.2398 17.8114 20.2398 17.8114 20.2398 15.9914V11.0214C20.2398 9.20141 20.2398 9.20141 18.5198 8.04141L13.7898 5.31141C13.0798 4.90141 11.9198 4.90141 11.2098 5.31141L6.47977 8.04141C4.75977 9.20141 4.75977 9.20141 4.75977 11.0214Z" stroke="white" stroke-width="1.5" stroke-linecap="round" stroke-linejoin="round"/>
<path d="M18 7.63V5C18 3 17 2 15 2H10C8 2 7 3 7 5V7.56" stroke="white" stroke-width="1.5" stroke-linecap="round" stroke-linejoin="round"/>
<path d="M13.1298 10.9909L13.6998 11.8809C13.7898 12.0209 13.9898 12.1609 14.1398 12.2009L15.1598 12.4609C15.7898 12.6209 15.9598 13.1609 15.5498 13.6609L14.8798 14.4709C14.7798 14.6009 14.6998 14.8309 14.7098 14.9909L14.7698 16.0409C14.8098 16.6909 14.3498 17.0209 13.7498 16.7809L12.7698 16.3909C12.6198 16.3309 12.3698 16.3309 12.2198 16.3909L11.2398 16.7809C10.6398 17.0209 10.1798 16.6809 10.2198 16.0409L10.2798 14.9909C10.2898 14.8309 10.2098 14.5909 10.1098 14.4709L9.43978 13.6609C9.02978 13.1609 9.19978 12.6209 9.82978 12.4609L10.8498 12.2009C11.0098 12.1609 11.2098 12.0109 11.2898 11.8809L11.8598 10.9909C12.2198 10.4509 12.7798 10.4509 13.1298 10.9909Z" stroke="white" stroke-width="1.5" stroke-linecap="round" stroke-linejoin="round"/>
</svg>
