<svg width="20" height="20" viewBox="0 0 20 20" fill="none" xmlns="http://www.w3.org/2000/svg">
<path d="M7.63314 9.05573C7.5498 9.0474 7.4498 9.0474 7.35814 9.05573C5.3748 8.98906 3.7998 7.36406 3.7998 5.36406C3.7998 3.3224 5.4498 1.66406 7.4998 1.66406C9.54147 1.66406 11.1998 3.3224 11.1998 5.36406C11.1915 7.36406 9.61647 8.98906 7.63314 9.05573Z" stroke="#4479FF" stroke-width="1.5" stroke-linecap="round" stroke-linejoin="round"/>
<path d="M13.6752 3.33594C15.2919 3.33594 16.5919 4.64427 16.5919 6.2526C16.5919 7.8276 15.3419 9.11094 13.7836 9.16927C13.7169 9.16094 13.6419 9.16094 13.5669 9.16927" stroke="#4479FF" stroke-width="1.5" stroke-linecap="round" stroke-linejoin="round"/>
<path d="M3.4666 12.1359C1.44993 13.4859 1.44993 15.6859 3.4666 17.0276C5.75827 18.5609 9.5166 18.5609 11.8083 17.0276C13.8249 15.6776 13.8249 13.4776 11.8083 12.1359C9.52494 10.6109 5.7666 10.6109 3.4666 12.1359Z" stroke="#4479FF" stroke-width="1.5" stroke-linecap="round" stroke-linejoin="round"/>
<path d="M15.2832 16.6641C15.8832 16.5391 16.4499 16.2974 16.9165 15.9391C18.2165 14.9641 18.2165 13.3557 16.9165 12.3807C16.4582 12.0307 15.8999 11.7974 15.3082 11.6641" stroke="#4479FF" stroke-width="1.5" stroke-linecap="round" stroke-linejoin="round"/>
</svg>
