<svg width="20" height="20" viewBox="0 0 20 20" fill="none" xmlns="http://www.w3.org/2000/svg">
<path d="M18.3337 13.9501V3.89174C18.3337 2.89174 17.517 2.15008 16.5253 2.23341H16.4753C14.7253 2.38341 12.067 3.27508 10.5837 4.20841L10.442 4.30008C10.2003 4.45008 9.80033 4.45008 9.55866 4.30008L9.35033 4.17508C7.86699 3.25008 5.21699 2.36674 3.46699 2.22508C2.47533 2.14174 1.66699 2.89174 1.66699 3.88341V13.9501C1.66699 14.7501 2.31699 15.5001 3.11699 15.6001L3.35866 15.6334C5.16699 15.8751 7.95866 16.7917 9.55866 17.6667L9.59199 17.6834C9.81699 17.8084 10.1753 17.8084 10.392 17.6834C11.992 16.8001 14.792 15.8751 16.6087 15.6334L16.8837 15.6001C17.6837 15.5001 18.3337 14.7501 18.3337 13.9501Z" stroke="#FFF0E4" stroke-width="1.5" stroke-linecap="round" stroke-linejoin="round"/>
<path d="M10 4.57495V17.075" stroke="#FFF0E4" stroke-width="1.5" stroke-linecap="round" stroke-linejoin="round"/>
<path d="M6.45801 7.07495H4.58301" stroke="#FFF0E4" stroke-width="1.5" stroke-linecap="round" stroke-linejoin="round"/>
<path d="M7.08301 9.57495H4.58301" stroke="#FFF0E4" stroke-width="1.5" stroke-linecap="round" stroke-linejoin="round"/>
</svg>
