<svg width="20" height="20" viewBox="0 0 20 20" fill="none" xmlns="http://www.w3.org/2000/svg">
<path d="M15.3917 14.0251L15.7167 16.6584C15.8 17.3501 15.0583 17.8334 14.4667 17.4751L10.975 15.4001C10.5917 15.4001 10.2167 15.3751 9.85001 15.3251C10.4667 14.6001 10.8333 13.6834 10.8333 12.6917C10.8333 10.3251 8.78334 8.40844 6.25001 8.40844C5.28334 8.40844 4.39168 8.68341 3.65001 9.16675C3.62501 8.95841 3.61667 8.75007 3.61667 8.53341C3.61667 4.74174 6.90834 1.66675 10.975 1.66675C15.0417 1.66675 18.3333 4.74174 18.3333 8.53341C18.3333 10.7834 17.175 12.7751 15.3917 14.0251Z" stroke="#495057" stroke-width="1.5" stroke-linecap="round" stroke-linejoin="round"/>
<path d="M10.8333 12.6917C10.8333 13.6834 10.4667 14.6001 9.85 15.3251C9.025 16.3251 7.71666 16.9667 6.24999 16.9667L4.07499 18.2584C3.70832 18.4834 3.24165 18.1751 3.29165 17.7501L3.49999 16.1084C2.38332 15.3334 1.66666 14.0917 1.66666 12.6917C1.66666 11.2251 2.44999 9.93342 3.64999 9.16676C4.39166 8.68342 5.28332 8.40845 6.24999 8.40845C8.78332 8.40845 10.8333 10.3251 10.8333 12.6917Z" stroke="#495057" stroke-width="1.5" stroke-linecap="round" stroke-linejoin="round"/>
</svg>
