<svg width="100" height="100" viewBox="0 0 100 100" fill="none" xmlns="http://www.w3.org/2000/svg">
<path d="M50 30.208C51.7258 30.208 53.125 31.6071 53.125 33.333V54.1663C53.125 55.8922 51.7258 57.2913 50 57.2913C48.2742 57.2913 46.875 55.8922 46.875 54.1663V33.333C46.875 31.6071 48.2742 30.208 50 30.208Z" fill="#DC3545"/>
<path d="M49.9987 70.8333C52.2999 70.8333 54.1654 68.9679 54.1654 66.6667C54.1654 64.3654 52.2999 62.5 49.9987 62.5C47.6974 62.5 45.832 64.3654 45.832 66.6667C45.832 68.9679 47.6974 70.8333 49.9987 70.8333Z" fill="#DC3545"/>
<path fill-rule="evenodd" clip-rule="evenodd" d="M34.5587 18.6518C39.025 12.9789 43.7562 9.375 49.9987 9.375C56.2408 9.375 60.972 12.9789 65.4387 18.6518C69.8312 24.231 74.4858 32.4842 80.4416 43.0437L82.2562 46.2612C87.1795 54.99 91.0679 61.8846 93.1104 67.4183C95.1979 73.0733 95.6937 78.2079 92.5362 82.7371C89.472 87.1325 84.3595 88.9308 77.9116 89.7796C71.4887 90.625 62.8508 90.625 51.7687 90.625H48.2287C37.1467 90.625 28.5087 90.625 22.0854 89.7796C15.6375 88.9308 10.5252 87.1325 7.46116 82.7371C4.30362 78.2079 4.79945 73.0733 6.88678 67.4183C8.92928 61.8846 12.8178 54.9904 17.7411 46.2612L19.5554 43.0446C25.5112 32.4845 30.1662 24.2311 34.5587 18.6518ZM39.4694 22.518C35.411 27.6728 30.9864 35.4995 24.8527 46.3746L23.3374 49.0612C18.2282 58.12 14.5974 64.5775 12.7501 69.5825C10.9266 74.5229 11.1794 77.1421 12.5882 79.1629C14.0904 81.3179 16.9101 82.7942 22.9012 83.5829C28.8678 84.3683 37.0929 84.375 48.4833 84.375H51.5137C62.9045 84.375 71.1295 84.3683 77.0962 83.5829C83.087 82.7942 85.9066 81.3179 87.4091 79.1629C88.8179 77.1421 89.0708 74.5229 87.247 69.5825C85.3999 64.5775 81.7691 58.12 76.66 49.0612L75.1445 46.3746C69.0108 35.4995 64.5862 27.6728 60.5279 22.518C56.507 17.411 53.3845 15.625 49.9987 15.625C46.6129 15.625 43.4899 17.411 39.4694 22.518Z" fill="#DC3545"/>
</svg>
