<svg width="20" height="20" viewBox="0 0 20 20" fill="none" xmlns="http://www.w3.org/2000/svg">
<mask id="mask0_9086_104484" style="mask-type:luminance" maskUnits="userSpaceOnUse" x="2" y="0" width="16" height="20">
<path d="M15.8174 1.38281V18.625H4.22559V1.38281H15.8174Z" fill="white" stroke="white" stroke-width="2.53165"/>
</mask>
<g mask="url(#mask0_9086_104484)">
<mask id="path-2-inside-1_9086_104484" fill="white">
<path d="M11.8589 8.98377C11.6071 8.55657 11.3195 8.33408 10.9325 8.26513C10.5349 8.19442 10.2105 8.34904 9.8557 8.61106C9.84414 8.44424 9.83359 8.28124 9.82312 8.1209C9.79687 7.71546 9.77211 7.33255 9.73371 6.94788C9.71826 6.79185 9.70322 6.63572 9.6886 6.47947C9.6238 5.7982 9.55678 5.09376 9.43323 4.41076C9.36769 4.04845 9.20059 3.64983 8.92344 3.19205C8.62326 2.69731 8.11756 2.58971 7.5713 2.904C7.07456 3.18964 6.957 3.68147 6.91014 4.07794C6.87392 4.38309 6.86821 4.69589 6.86265 4.99847L6.8598 5.14528C6.8547 5.38056 6.84942 5.61579 6.84394 5.85096C6.82517 6.66648 6.80571 7.50967 6.80606 8.33923C6.80606 8.95536 6.8258 9.58146 6.84475 10.187C6.85306 10.444 6.86085 10.7011 6.86751 10.9582C6.84657 10.9416 6.82598 10.925 6.80512 10.9083C6.7694 10.8792 6.73354 10.8502 6.6964 10.8229C5.85479 10.2036 4.95257 9.98248 4.01518 10.1665C3.8095 10.2013 3.61616 10.2881 3.45349 10.4187C3.29082 10.5493 3.16422 10.7193 3.08575 10.9127C3.00894 11.1177 2.98503 11.3387 3.01622 11.5555C3.04741 11.7721 3.13273 11.9774 3.26425 12.1525C3.39933 12.3264 3.55296 12.485 3.72249 12.6255L3.77592 12.6734C4.3948 13.2104 4.90983 13.8568 5.29538 14.5799C5.82179 15.595 6.41471 16.6673 7.10819 17.8584C7.28873 18.1687 7.57797 18.4228 7.80959 18.6097C8.24651 18.9621 8.7694 19.2507 9.45507 19.5175C10.0618 19.7565 10.7082 19.8792 11.3603 19.8789C12.0999 19.8701 12.8323 19.7328 13.525 19.4734C14.036 19.2817 14.5091 19.0012 14.9225 18.6449C15.6707 18.0228 16.1922 17.1734 16.5165 16.0482C16.9498 14.5535 17.1339 12.9977 17.0608 11.4431C17.0294 11.0001 16.9315 10.5644 16.7701 10.1506C16.6683 9.84732 16.4634 9.58927 16.191 9.42144C15.9187 9.25362 15.596 9.18657 15.2795 9.23201C15.0591 9.26691 14.8442 9.33031 14.6402 9.42044C14.5526 9.45442 14.4624 9.48948 14.3697 9.52138C14.1919 9.06643 13.8105 8.7391 13.2913 8.59719C12.7099 8.43827 12.2281 8.56837 11.8589 8.98377ZM8.3207 17.7842C8.17289 17.6823 8.04431 17.555 7.94087 17.4083C7.71738 17.076 7.45798 16.6787 7.22844 16.2528C6.90998 15.6621 6.59327 15.0364 6.28712 14.3931C5.74709 13.2577 5.0757 12.3899 4.23501 11.7401C4.22535 11.733 4.2163 11.7252 4.20788 11.7166C4.18121 11.6885 4.15321 11.6606 4.12479 11.6328C3.96437 11.4738 3.81279 11.3235 3.89405 11.0732C3.98211 10.8023 4.23752 10.7585 4.48535 10.7585C4.49773 10.7585 4.5103 10.7585 4.52242 10.7585C5.428 10.7729 6.10409 11.1086 6.53121 11.7563C6.61188 11.8963 6.67137 12.0475 6.70776 12.205C6.72047 12.2493 6.73266 12.2932 6.74646 12.3365C6.80263 12.5179 6.89435 12.7065 7.14783 12.7303C7.35552 12.7501 7.533 12.5944 7.60213 12.3346C7.63104 12.221 7.6443 12.104 7.64152 11.9868C7.62233 10.9312 7.60061 9.89899 7.57702 8.91889C7.57163 8.69548 7.56192 8.46858 7.55212 8.24917C7.53459 7.84058 7.5164 7.41837 7.52587 7.00379C7.5468 6.08699 7.60146 5.15517 7.65431 4.25383L7.66263 4.1115C7.68056 3.80618 7.75647 3.48117 8.18094 3.37624C8.45618 3.58569 8.62211 3.88428 8.68774 4.28829C8.79823 4.96774 8.87216 5.58785 8.91345 6.18412C8.97069 7.00819 9.01409 7.84723 9.05621 8.65867C9.07731 9.06718 9.09907 9.47561 9.12144 9.88412C9.13183 10.0696 9.18042 10.3206 9.48002 10.3595C9.76465 10.3966 9.87198 10.1783 9.95797 10.003C9.99311 9.93123 10.0271 9.85828 10.061 9.78533C10.1602 9.55071 10.284 9.3273 10.4301 9.1187C10.5547 8.95519 10.7153 8.87569 10.8721 8.90077C11.0348 8.92677 11.1688 9.05962 11.2398 9.26508C11.2933 9.44952 11.3226 9.64019 11.3269 9.83219C11.3308 9.89101 11.3348 9.94967 11.3399 10.0077C11.344 10.0742 11.3427 10.1409 11.336 10.2071C11.3305 10.2674 11.3286 10.3278 11.3301 10.3883C11.3295 10.4707 11.3606 10.5501 11.417 10.6102C11.4734 10.6702 11.5507 10.7063 11.633 10.7109C11.8241 10.7363 11.9604 10.6582 12.0161 10.4908C12.0328 10.4406 12.0451 10.3889 12.057 10.3389C12.0696 10.2802 12.0859 10.2223 12.106 10.1658C12.1281 10.1076 12.1495 10.0489 12.1708 9.99013C12.235 9.79671 12.3151 9.60895 12.4102 9.42875C12.5609 9.16289 12.7402 9.09543 13.0499 9.18848C13.4254 9.30114 13.6499 9.53576 13.717 9.88586C13.7508 10.0889 13.7701 10.294 13.7751 10.4998C13.7773 10.5472 13.7795 10.5945 13.7821 10.6416C13.7935 10.8488 13.8366 11.0502 14.0735 11.1206C14.351 11.2037 14.486 11.0148 14.591 10.8319L14.6222 10.7773C14.7122 10.6102 14.8147 10.45 14.9289 10.2983C15.1194 10.0584 15.3468 9.9387 15.5525 9.97027C15.7462 9.99976 15.9082 10.1589 16.0087 10.4183C16.1893 10.8598 16.2969 11.3278 16.3274 11.8039C16.3807 13.0842 16.1465 14.3302 15.9105 15.3802C15.7526 16.0551 15.4647 16.693 15.063 17.2578C14.6287 17.8813 13.9629 18.3391 13.0841 18.618C11.4352 19.1426 9.83244 18.8617 8.3207 17.7842Z"/>
</mask>
<path d="M11.8589 8.98377C11.6071 8.55657 11.3195 8.33408 10.9325 8.26513C10.5349 8.19442 10.2105 8.34904 9.8557 8.61106C9.84414 8.44424 9.83359 8.28124 9.82312 8.1209C9.79687 7.71546 9.77211 7.33255 9.73371 6.94788C9.71826 6.79185 9.70322 6.63572 9.6886 6.47947C9.6238 5.7982 9.55678 5.09376 9.43323 4.41076C9.36769 4.04845 9.20059 3.64983 8.92344 3.19205C8.62326 2.69731 8.11756 2.58971 7.5713 2.904C7.07456 3.18964 6.957 3.68147 6.91014 4.07794C6.87392 4.38309 6.86821 4.69589 6.86265 4.99847L6.8598 5.14528C6.8547 5.38056 6.84942 5.61579 6.84394 5.85096C6.82517 6.66648 6.80571 7.50967 6.80606 8.33923C6.80606 8.95536 6.8258 9.58146 6.84475 10.187C6.85306 10.444 6.86085 10.7011 6.86751 10.9582C6.84657 10.9416 6.82598 10.925 6.80512 10.9083C6.7694 10.8792 6.73354 10.8502 6.6964 10.8229C5.85479 10.2036 4.95257 9.98248 4.01518 10.1665C3.8095 10.2013 3.61616 10.2881 3.45349 10.4187C3.29082 10.5493 3.16422 10.7193 3.08575 10.9127C3.00894 11.1177 2.98503 11.3387 3.01622 11.5555C3.04741 11.7721 3.13273 11.9774 3.26425 12.1525C3.39933 12.3264 3.55296 12.485 3.72249 12.6255L3.77592 12.6734C4.3948 13.2104 4.90983 13.8568 5.29538 14.5799C5.82179 15.595 6.41471 16.6673 7.10819 17.8584C7.28873 18.1687 7.57797 18.4228 7.80959 18.6097C8.24651 18.9621 8.7694 19.2507 9.45507 19.5175C10.0618 19.7565 10.7082 19.8792 11.3603 19.8789C12.0999 19.8701 12.8323 19.7328 13.525 19.4734C14.036 19.2817 14.5091 19.0012 14.9225 18.6449C15.6707 18.0228 16.1922 17.1734 16.5165 16.0482C16.9498 14.5535 17.1339 12.9977 17.0608 11.4431C17.0294 11.0001 16.9315 10.5644 16.7701 10.1506C16.6683 9.84732 16.4634 9.58927 16.191 9.42144C15.9187 9.25362 15.596 9.18657 15.2795 9.23201C15.0591 9.26691 14.8442 9.33031 14.6402 9.42044C14.5526 9.45442 14.4624 9.48948 14.3697 9.52138C14.1919 9.06643 13.8105 8.7391 13.2913 8.59719C12.7099 8.43827 12.2281 8.56837 11.8589 8.98377ZM8.3207 17.7842C8.17289 17.6823 8.04431 17.555 7.94087 17.4083C7.71738 17.076 7.45798 16.6787 7.22844 16.2528C6.90998 15.6621 6.59327 15.0364 6.28712 14.3931C5.74709 13.2577 5.0757 12.3899 4.23501 11.7401C4.22535 11.733 4.2163 11.7252 4.20788 11.7166C4.18121 11.6885 4.15321 11.6606 4.12479 11.6328C3.96437 11.4738 3.81279 11.3235 3.89405 11.0732C3.98211 10.8023 4.23752 10.7585 4.48535 10.7585C4.49773 10.7585 4.5103 10.7585 4.52242 10.7585C5.428 10.7729 6.10409 11.1086 6.53121 11.7563C6.61188 11.8963 6.67137 12.0475 6.70776 12.205C6.72047 12.2493 6.73266 12.2932 6.74646 12.3365C6.80263 12.5179 6.89435 12.7065 7.14783 12.7303C7.35552 12.7501 7.533 12.5944 7.60213 12.3346C7.63104 12.221 7.6443 12.104 7.64152 11.9868C7.62233 10.9312 7.60061 9.89899 7.57702 8.91889C7.57163 8.69548 7.56192 8.46858 7.55212 8.24917C7.53459 7.84058 7.5164 7.41837 7.52587 7.00379C7.5468 6.08699 7.60146 5.15517 7.65431 4.25383L7.66263 4.1115C7.68056 3.80618 7.75647 3.48117 8.18094 3.37624C8.45618 3.58569 8.62211 3.88428 8.68774 4.28829C8.79823 4.96774 8.87216 5.58785 8.91345 6.18412C8.97069 7.00819 9.01409 7.84723 9.05621 8.65867C9.07731 9.06718 9.09907 9.47561 9.12144 9.88412C9.13183 10.0696 9.18042 10.3206 9.48002 10.3595C9.76465 10.3966 9.87198 10.1783 9.95797 10.003C9.99311 9.93123 10.0271 9.85828 10.061 9.78533C10.1602 9.55071 10.284 9.3273 10.4301 9.1187C10.5547 8.95519 10.7153 8.87569 10.8721 8.90077C11.0348 8.92677 11.1688 9.05962 11.2398 9.26508C11.2933 9.44952 11.3226 9.64019 11.3269 9.83219C11.3308 9.89101 11.3348 9.94967 11.3399 10.0077C11.344 10.0742 11.3427 10.1409 11.336 10.2071C11.3305 10.2674 11.3286 10.3278 11.3301 10.3883C11.3295 10.4707 11.3606 10.5501 11.417 10.6102C11.4734 10.6702 11.5507 10.7063 11.633 10.7109C11.8241 10.7363 11.9604 10.6582 12.0161 10.4908C12.0328 10.4406 12.0451 10.3889 12.057 10.3389C12.0696 10.2802 12.0859 10.2223 12.106 10.1658C12.1281 10.1076 12.1495 10.0489 12.1708 9.99013C12.235 9.79671 12.3151 9.60895 12.4102 9.42875C12.5609 9.16289 12.7402 9.09543 13.0499 9.18848C13.4254 9.30114 13.6499 9.53576 13.717 9.88586C13.7508 10.0889 13.7701 10.294 13.7751 10.4998C13.7773 10.5472 13.7795 10.5945 13.7821 10.6416C13.7935 10.8488 13.8366 11.0502 14.0735 11.1206C14.351 11.2037 14.486 11.0148 14.591 10.8319L14.6222 10.7773C14.7122 10.6102 14.8147 10.45 14.9289 10.2983C15.1194 10.0584 15.3468 9.9387 15.5525 9.97027C15.7462 9.99976 15.9082 10.1589 16.0087 10.4183C16.1893 10.8598 16.2969 11.3278 16.3274 11.8039C16.3807 13.0842 16.1465 14.3302 15.9105 15.3802C15.7526 16.0551 15.4647 16.693 15.063 17.2578C14.6287 17.8813 13.9629 18.3391 13.0841 18.618C11.4352 19.1426 9.83244 18.8617 8.3207 17.7842Z" fill="#ECF0F1"/>
<path d="M11.8589 8.98377L9.67798 10.2693L11.4428 13.2634L13.7514 10.6654L11.8589 8.98377ZM10.9325 8.26513L11.3766 5.77273L11.3757 5.77259L10.9325 8.26513ZM9.8557 8.61106L7.33011 8.78603L7.6489 13.3877L11.3596 10.6476L9.8557 8.61106ZM9.82312 8.1209L7.29676 8.28449L7.29685 8.28583L9.82312 8.1209ZM9.73371 6.94788L7.2144 7.19744L7.21458 7.1993L9.73371 6.94788ZM9.6886 6.47947L12.2092 6.24362L12.2089 6.23976L9.6886 6.47947ZM9.43323 4.41076L11.9245 3.96014L11.9244 3.96009L9.43323 4.41076ZM8.92344 3.19205L11.0891 1.88088L11.0879 1.87884L8.92344 3.19205ZM7.5713 2.904L8.83328 5.09868L8.83382 5.09838L7.5713 2.904ZM6.91014 4.07794L9.42414 4.3764L9.42429 4.3751L6.91014 4.07794ZM6.86265 4.99847L9.39382 5.04758L9.39387 5.04496L6.86265 4.99847ZM6.8598 5.14528L9.39086 5.20016L9.39097 5.19439L6.8598 5.14528ZM6.84394 5.85096L4.31298 5.79198L4.31297 5.7927L6.84394 5.85096ZM6.80606 8.33923H9.3377L9.3377 8.33819L6.80606 8.33923ZM6.84475 10.187L4.31434 10.2661L4.31443 10.2687L6.84475 10.187ZM6.86751 10.9582L5.29421 12.9416L9.53859 16.3084L9.39831 10.8926L6.86751 10.9582ZM6.80512 10.9083L5.20445 12.8697L5.21595 12.8791L5.22757 12.8884L6.80512 10.9083ZM6.6964 10.8229L8.19686 8.78377L8.19685 8.78376L6.6964 10.8229ZM4.01518 10.1665L4.43765 12.6627L4.47034 12.6571L4.50287 12.6507L4.01518 10.1665ZM3.45349 10.4187L1.8686 8.44456L1.8685 8.44465L3.45349 10.4187ZM3.08575 10.9127L0.739949 9.96059L0.727048 9.99238L0.715013 10.0245L3.08575 10.9127ZM3.01622 11.5555L0.510388 11.916L0.510406 11.9162L3.01622 11.5555ZM3.26425 12.1525L1.2402 13.6731L1.25245 13.6895L1.26496 13.7056L3.26425 12.1525ZM3.72249 12.6255L5.41097 10.7392L5.3753 10.7073L5.33845 10.6767L3.72249 12.6255ZM3.77592 12.6734L2.08744 14.5597L2.10192 14.5727L2.11659 14.5854L3.77592 12.6734ZM5.29538 14.5799L7.5428 13.4144L7.53615 13.4016L7.52936 13.3889L5.29538 14.5799ZM7.10819 17.8584L9.29635 16.5852L9.29606 16.5846L7.10819 17.8584ZM7.80959 18.6097L6.22011 20.5802L6.22021 20.5802L7.80959 18.6097ZM9.45507 19.5175L10.3829 17.162L10.3732 17.1582L9.45507 19.5175ZM11.3603 19.8789L11.3613 22.4106L11.376 22.4106L11.3906 22.4104L11.3603 19.8789ZM13.525 19.4734L14.4131 21.8441L14.4139 21.8438L13.525 19.4734ZM14.9225 18.6449L13.304 16.6982L13.2867 16.7126L13.2697 16.7273L14.9225 18.6449ZM16.5165 16.0482L14.085 15.3433L14.0839 15.347L16.5165 16.0482ZM17.0608 11.4431L19.5897 11.3243L19.5883 11.2942L19.5862 11.2642L17.0608 11.4431ZM16.7701 10.1506L14.37 10.9561L14.3894 11.0137L14.4115 11.0704L16.7701 10.1506ZM16.191 9.42144L14.8626 11.5766L14.8631 11.5769L16.191 9.42144ZM15.2795 9.23201L14.9197 6.72606L14.9016 6.72866L14.8835 6.73152L15.2795 9.23201ZM14.6402 9.42044L15.5559 11.7807L15.61 11.7597L15.6631 11.7362L14.6402 9.42044ZM14.3697 9.52138L12.0119 10.4432L12.8964 12.7055L15.1933 11.9153L14.3697 9.52138ZM13.2913 8.59719L13.9589 6.15514L13.9588 6.15511L13.2913 8.59719ZM8.3207 17.7842L9.79007 15.7226L9.77394 15.7111L9.75762 15.6999L8.3207 17.7842ZM7.94087 17.4083L5.84015 18.8212L5.85573 18.8443L5.87182 18.8672L7.94087 17.4083ZM7.22844 16.2528L9.45692 15.0516L9.45692 15.0516L7.22844 16.2528ZM6.28712 14.3931L4.00088 15.4805L4.00115 15.481L6.28712 14.3931ZM4.23501 11.7401L5.78319 9.73705L5.7617 9.72045L5.73987 9.70431L4.23501 11.7401ZM4.20788 11.7166L2.36965 13.4574L2.38622 13.4749L2.40311 13.492L4.20788 11.7166ZM4.12479 11.6328L2.34257 13.4308L2.34791 13.4361L2.35327 13.4414L4.12479 11.6328ZM3.89405 11.0732L1.48648 10.2903L1.48607 10.2916L3.89405 11.0732ZM4.52242 10.7585L4.56283 8.22713L4.54263 8.22681H4.52242V10.7585ZM6.53121 11.7563L8.7247 10.4923L8.68665 10.4263L8.64469 10.3626L6.53121 11.7563ZM6.70776 12.205L4.24116 12.7751L4.25608 12.8397L4.27437 12.9034L6.70776 12.205ZM6.74646 12.3365L9.1648 11.5876L9.16172 11.5776L9.15856 11.5677L6.74646 12.3365ZM7.14783 12.7303L7.38744 10.21L7.38446 10.2098L7.14783 12.7303ZM7.60213 12.3346L10.0487 12.9856L10.0522 12.9724L10.0555 12.9591L7.60213 12.3346ZM7.64152 11.9868L5.11026 12.0328L5.11059 12.0467L7.64152 11.9868ZM7.57702 8.91889L10.1079 8.85796L10.1079 8.8578L7.57702 8.91889ZM7.55212 8.24917L5.0228 8.3577L5.02299 8.3621L7.55212 8.24917ZM7.52587 7.00379L10.0569 7.06159V7.06159L7.52587 7.00379ZM7.65431 4.25383L10.1816 4.40201L10.1816 4.4015L7.65431 4.25383ZM7.66263 4.1115L5.13534 3.96302L5.13529 3.96382L7.66263 4.1115ZM8.18094 3.37624L9.71401 1.36156L8.74973 0.6278L7.57343 0.918569L8.18094 3.37624ZM8.68774 4.28829L6.18885 4.69424L6.18892 4.69466L8.68774 4.28829ZM8.91345 6.18412L6.38785 6.35901L6.38789 6.35954L8.91345 6.18412ZM9.05621 8.65867L11.5845 8.52808L11.5844 8.52746L9.05621 8.65867ZM9.12144 9.88412L6.59357 10.0225L6.59376 10.0258L9.12144 9.88412ZM9.48002 10.3595L9.80757 7.84914L9.80588 7.84892L9.48002 10.3595ZM9.95797 10.003L12.2309 11.1179L12.2317 11.1162L9.95797 10.003ZM10.061 9.78533L12.356 10.8542L12.3752 10.813L12.3928 10.7713L10.061 9.78533ZM10.4301 9.1187L8.41663 7.58407L8.38581 7.6245L8.35665 7.66613L10.4301 9.1187ZM10.8721 8.90077L10.472 11.4006L10.4725 11.4007L10.8721 8.90077ZM11.2398 9.26508L13.6711 8.55927L13.6533 8.49812L13.6325 8.43793L11.2398 9.26508ZM11.3269 9.83219L8.7959 9.88926L8.79715 9.94449L8.8008 9.99962L11.3269 9.83219ZM11.3399 10.0077L13.8668 9.85278L13.8647 9.81835L13.8617 9.78398L11.3399 10.0077ZM11.336 10.2071L8.81709 9.95385L8.81589 9.96577L8.8148 9.9777L11.336 10.2071ZM11.3301 10.3883L13.8616 10.4061L13.8619 10.3659L13.8609 10.3257L11.3301 10.3883ZM11.417 10.6102L9.57033 12.342L9.57151 12.3432L11.417 10.6102ZM11.633 10.7109L11.9658 8.20127L11.8713 8.18873L11.7761 8.18334L11.633 10.7109ZM12.0161 10.4908L14.418 11.291L14.4197 11.2858L12.0161 10.4908ZM12.057 10.3389L14.5201 10.9243L14.5268 10.896L14.5328 10.8677L12.057 10.3389ZM12.106 10.1658L9.73954 9.26635L9.72971 9.2922L9.72045 9.31827L12.106 10.1658ZM12.1708 9.99013L14.5503 10.8547L14.5625 10.821L14.5738 10.787L12.1708 9.99013ZM12.4102 9.42875L10.2078 8.18027L10.1891 8.21331L10.1713 8.24689L12.4102 9.42875ZM13.0499 9.18848L12.3215 11.6131L12.3224 11.6134L13.0499 9.18848ZM13.717 9.88586L16.2142 9.47004L16.2092 9.43979L16.2034 9.40966L13.717 9.88586ZM13.7751 10.4998L11.2442 10.5612L11.2449 10.5883L11.2461 10.6154L13.7751 10.4998ZM13.7821 10.6416L11.2542 10.7793L11.2543 10.7807L13.7821 10.6416ZM14.0735 11.1206L14.7995 8.69531L14.7953 8.69404L14.0735 11.1206ZM14.591 10.8319L16.7868 12.092L16.7884 12.0891L14.591 10.8319ZM14.6222 10.7773L16.8196 12.0345L16.8359 12.0062L16.8513 11.9774L14.6222 10.7773ZM14.9289 10.2983L12.9464 8.72375L12.9259 8.74964L12.906 8.77605L14.9289 10.2983ZM15.5525 9.97027L15.1683 12.4726L15.1713 12.4731L15.5525 9.97027ZM16.0087 10.4183L13.648 11.3328L13.6566 11.355L13.6656 11.377L16.0087 10.4183ZM16.3274 11.8039L18.8569 11.6986L18.8557 11.6703L18.8539 11.642L16.3274 11.8039ZM15.9105 15.3802L18.3756 15.9567L18.3781 15.9461L18.3804 15.9355L15.9105 15.3802ZM15.063 17.2578L13 15.7905L12.9928 15.8006L12.9857 15.8107L15.063 17.2578ZM13.0841 18.618L12.318 16.2051L12.3166 16.2055L13.0841 18.618ZM11.8589 8.98377L14.0399 7.69823C13.5169 6.81101 12.6708 6.00333 11.3766 5.77273L10.9325 8.26513L10.4884 10.7575C10.3009 10.7241 10.0848 10.6378 9.89536 10.491C9.72634 10.3599 9.66507 10.2474 9.67798 10.2693L11.8589 8.98377ZM10.9325 8.26513L11.3757 5.77259C9.93956 5.5172 8.8882 6.17842 8.35182 6.57451L9.8557 8.61106L11.3596 10.6476C11.4503 10.5806 11.3906 10.64 11.2298 10.6974C11.1398 10.7295 11.0224 10.7599 10.8836 10.773C10.7435 10.7862 10.6094 10.779 10.4893 10.7577L10.9325 8.26513ZM9.8557 8.61106L12.3813 8.4361C12.3702 8.27548 12.36 8.11839 12.3494 7.95597L9.82312 8.1209L7.29685 8.28583C7.30718 8.44409 7.31812 8.61301 7.33011 8.78603L9.8557 8.61106ZM9.82312 8.1209L12.3495 7.95731C12.3237 7.55983 12.2964 7.13249 12.2528 6.69645L9.73371 6.94788L7.21458 7.1993C7.24785 7.5326 7.27 7.87109 7.29676 8.28449L9.82312 8.1209ZM9.73371 6.94788L12.253 6.69831C12.238 6.54685 12.2234 6.39529 12.2092 6.24362L9.6886 6.47947L7.16796 6.71532C7.18301 6.87615 7.19849 7.03685 7.2144 7.19744L9.73371 6.94788ZM9.6886 6.47947L12.2089 6.23976C12.1458 5.57683 12.0702 4.76565 11.9245 3.96014L9.43323 4.41076L6.94201 4.86139C7.0434 5.42187 7.10179 6.01958 7.16833 6.71918L9.6886 6.47947ZM9.43323 4.41076L11.9244 3.96009C11.7846 3.18732 11.459 2.4918 11.0891 1.88089L8.92344 3.19205L6.75778 4.50322C6.84594 4.64883 6.89558 4.75069 6.92233 4.81462C6.9487 4.87762 6.9473 4.89063 6.94202 4.86143L9.43323 4.41076ZM8.92344 3.19205L11.0879 1.87884C10.6415 1.14312 9.89669 0.48781 8.86696 0.268519C7.87189 0.0566082 6.97164 0.328256 6.30878 0.70963L7.5713 2.904L8.83382 5.09838C8.71722 5.16546 8.34295 5.33376 7.81233 5.22076C7.24707 5.10038 6.90523 4.74624 6.75902 4.50527L8.92344 3.19205ZM7.5713 2.904L6.30931 0.709324C4.71158 1.62805 4.46291 3.21468 4.396 3.78078L6.91014 4.07794L9.42429 4.3751C9.43566 4.27892 9.43675 4.36898 9.36544 4.52153C9.32509 4.60784 9.26095 4.71657 9.1632 4.82733C9.06346 4.94036 8.94936 5.03193 8.83328 5.09868L7.5713 2.904ZM6.91014 4.07794L4.39615 3.77948C4.3425 4.23144 4.33658 4.67158 4.33143 4.95198L6.86265 4.99847L9.39387 5.04496C9.39983 4.7202 9.40534 4.53474 9.42413 4.3764L6.91014 4.07794ZM6.86265 4.99847L4.33148 4.94936L4.32863 5.09617L6.8598 5.14528L9.39097 5.19439L9.39382 5.04758L6.86265 4.99847ZM6.8598 5.14528L4.32875 5.0904C4.32368 5.32441 4.31843 5.55826 4.31298 5.79198L6.84394 5.85096L9.3749 5.90995C9.38041 5.67331 9.38572 5.43671 9.39085 5.20016L6.8598 5.14528ZM6.84394 5.85096L4.31297 5.7927C4.29431 6.60301 4.27405 7.47603 4.27441 8.34027L6.80606 8.33923L9.3377 8.33819C9.33737 7.54332 9.35602 6.72995 9.37492 5.90922L6.84394 5.85096ZM6.80606 8.33923H4.27441C4.27441 9.00182 4.29563 9.66804 4.31435 10.2661L6.84475 10.187L9.37516 10.1078C9.35598 9.49487 9.3377 8.90889 9.3377 8.33923H6.80606ZM6.84475 10.187L4.31443 10.2687C4.32263 10.5226 4.33024 10.7739 4.33671 11.0237L6.86751 10.9582L9.39831 10.8926C9.39146 10.6283 9.38348 10.3654 9.37508 10.1052L6.84475 10.187ZM6.86751 10.9582L8.44081 8.97476C8.41442 8.95382 8.42831 8.96465 8.38267 8.92829L6.80512 10.9083L5.22757 12.8884C5.23473 12.8941 5.24168 12.8997 5.25361 12.9092C5.26425 12.9177 5.27867 12.9293 5.29421 12.9416L6.86751 10.9582ZM6.80512 10.9083L8.40579 8.94693C8.36975 8.91752 8.29028 8.85251 8.19686 8.78377L6.6964 10.8229L5.19593 12.8619C5.18401 12.8532 5.17774 12.8481 5.17974 12.8497C5.1806 12.8504 5.18283 12.8522 5.18706 12.8556C5.19141 12.8591 5.19676 12.8635 5.20445 12.8697L6.80512 10.9083ZM6.6964 10.8229L8.19685 8.78376C6.84443 7.7886 5.23094 7.34787 3.52749 7.68228L4.01518 10.1665L4.50287 12.6507C4.67421 12.6171 4.86514 12.6185 5.19595 12.8619L6.6964 10.8229ZM4.01518 10.1665L3.59271 7.67036C2.96135 7.77722 2.36787 8.04374 1.8686 8.44456L3.45349 10.4187L5.03838 12.3929C4.86445 12.5325 4.65766 12.6254 4.43765 12.6627L4.01518 10.1665ZM3.45349 10.4187L1.8685 8.44465C1.36954 8.84526 0.980888 9.36694 0.739949 9.96059L3.08575 10.9127L5.43156 11.8647C5.34755 12.0717 5.2121 12.2534 5.03849 12.3928L3.45349 10.4187ZM3.08575 10.9127L0.715013 10.0245C0.48897 10.6279 0.418625 11.2783 0.510388 11.916L3.01622 11.5555L5.52206 11.1949C5.55144 11.3991 5.52891 11.6075 5.45649 11.8008L3.08575 10.9127ZM3.01622 11.5555L0.510406 11.9162C0.602262 12.5543 0.853479 13.1584 1.2402 13.6731L3.26425 12.1525L5.2883 10.6318C5.41198 10.7964 5.49256 10.99 5.52204 11.1947L3.01622 11.5555ZM3.26425 12.1525L1.26496 13.7056C1.51306 14.0249 1.79524 14.3162 2.10653 14.5744L3.72249 12.6255L5.33845 10.6767C5.31069 10.6537 5.28559 10.6278 5.26353 10.5994L3.26425 12.1525ZM3.72249 12.6255L2.03401 14.5119L2.08744 14.5597L3.77592 12.6734L5.4644 10.787L5.41097 10.7392L3.72249 12.6255ZM3.77592 12.6734L2.11659 14.5854C2.50125 14.9192 2.82156 15.3211 3.06141 15.771L5.29538 14.5799L7.52936 13.3889C6.9981 12.3924 6.28835 11.5017 5.43524 10.7613L3.77592 12.6734ZM5.29538 14.5799L3.04797 15.7454C3.59673 16.8036 4.21018 17.9124 4.92033 19.1322L7.10819 17.8584L9.29606 16.5846C8.61924 15.4221 8.04685 14.3864 7.5428 13.4144L5.29538 14.5799ZM7.10819 17.8584L4.92003 19.1317C5.35212 19.8742 5.96479 20.3742 6.22011 20.5802L7.80959 18.6097L9.39907 16.6392C9.35849 16.6065 9.32632 16.5796 9.29916 16.5557C9.27202 16.5318 9.2541 16.5147 9.24311 16.5035C9.23193 16.4922 9.23246 16.4916 9.24072 16.502C9.24885 16.5122 9.26995 16.5398 9.29635 16.5852L7.10819 17.8584ZM7.80959 18.6097L6.22021 20.5802C6.91099 21.1374 7.67923 21.543 8.53693 21.8768L9.45507 19.5175L10.3732 17.1582C9.85956 16.9584 9.58204 16.7868 9.39896 16.6391L7.80959 18.6097ZM9.45507 19.5175L8.52727 21.873C9.42961 22.2285 10.391 22.4109 11.3613 22.4106L11.3603 19.8789L11.3593 17.3473C11.0253 17.3474 10.694 17.2846 10.3829 17.162L9.45507 19.5175ZM11.3603 19.8789L11.3906 22.4104C12.4233 22.398 13.446 22.2064 14.4131 21.8441L13.525 19.4734L12.6368 17.1026C12.2187 17.2593 11.7765 17.3421 11.33 17.3475L11.3603 19.8789ZM13.525 19.4734L14.4139 21.8438C15.2044 21.5474 15.9361 21.1135 16.5754 20.5625L14.9225 18.6449L13.2697 16.7273C13.0822 16.8889 12.8676 17.0161 12.636 17.1029L13.525 19.4734ZM14.9225 18.6449L16.541 20.5916C17.7527 19.5842 18.5134 18.2612 18.9492 16.7493L16.5165 16.0482L14.0839 15.347C13.8711 16.0855 13.5888 16.4615 13.304 16.6982L14.9225 18.6449ZM16.5165 16.0482L18.9481 16.753C19.4588 14.9913 19.6758 13.1571 19.5897 11.3243L17.0608 11.4431L14.532 11.5619C14.5919 12.8382 14.4409 14.1157 14.085 15.3433L16.5165 16.0482ZM17.0608 11.4431L19.5862 11.2642C19.5368 10.5675 19.3827 9.8819 19.1287 9.23069L16.7701 10.1506L14.4115 11.0704C14.4803 11.2469 14.5221 11.4328 14.5355 11.6221L17.0608 11.4431ZM16.7701 10.1506L19.1702 9.34505C18.8799 8.48026 18.2956 7.74453 17.5189 7.26601L16.191 9.42144L14.8631 11.5769C14.6312 11.434 14.4567 11.2144 14.37 10.9561L16.7701 10.1506ZM16.191 9.42144L17.5193 7.26629C16.7427 6.78763 15.8227 6.59643 14.9197 6.72606L15.2795 9.23201L15.6392 11.738C15.3693 11.7767 15.0946 11.7196 14.8626 11.5766L16.191 9.42144ZM15.2795 9.23201L14.8835 6.73152C14.4463 6.80074 14.0208 6.9264 13.6172 7.10469L14.6402 9.42044L15.6631 11.7362C15.6676 11.7342 15.6718 11.7331 15.6754 11.7325L15.2795 9.23201ZM14.6402 9.42044L13.7244 7.06021C13.628 7.09765 13.5843 7.11431 13.5461 7.12744L14.3697 9.52138L15.1933 11.9153C15.3406 11.8647 15.4772 11.8112 15.5559 11.7807L14.6402 9.42044ZM14.3697 9.52138L16.7276 8.59953C16.2264 7.31771 15.1617 6.48392 13.9589 6.15514L13.2913 8.59719L12.6238 11.0392C12.5564 11.0208 12.4382 10.9732 12.3107 10.8639C12.1798 10.7516 12.0749 10.6044 12.0119 10.4432L14.3697 9.52138ZM13.2913 8.59719L13.9588 6.15511C13.3256 5.98207 12.5934 5.92645 11.8358 6.13094C11.0652 6.33892 10.439 6.77041 9.96652 7.30212L11.8589 8.98377L13.7514 10.6654C13.648 10.7817 13.4472 10.9405 13.1553 11.0193C12.8762 11.0946 12.6756 11.0534 12.6239 11.0393L13.2913 8.59719ZM8.3207 17.7842L9.75762 15.6999C9.85638 15.768 9.94163 15.8526 10.0099 15.9494L7.94087 17.4083L5.87182 18.8672C6.14699 19.2574 6.4894 19.5967 6.88378 19.8686L8.3207 17.7842ZM7.94087 17.4083L10.0416 15.9954C9.82904 15.6794 9.62591 15.3651 9.45692 15.0516L7.22844 16.2528L4.99995 17.4541C5.29005 17.9923 5.60573 18.4726 5.84015 18.8212L7.94087 17.4083ZM7.22844 16.2528L9.45692 15.0516C9.15974 14.5003 8.86212 13.9125 8.57309 13.3052L6.28712 14.3931L4.00115 15.481C4.32442 16.1603 4.66022 16.8239 4.99995 17.4541L7.22844 16.2528ZM6.28712 14.3931L8.57336 13.3057C7.8936 11.8765 6.99089 10.6705 5.78319 9.73705L4.23501 11.7401L2.68682 13.7432C3.16052 14.1093 3.60058 14.6388 4.00088 15.4805L6.28712 14.3931ZM4.23501 11.7401L5.73987 9.70431C5.83253 9.7728 5.92438 9.85151 6.01265 9.94123L4.20788 11.7166L2.40311 13.492C2.50821 13.5989 2.61816 13.6932 2.73014 13.776L4.23501 11.7401ZM4.20788 11.7166L6.0461 9.9759C5.98619 9.91263 5.93115 9.85835 5.89631 9.82422L4.12479 11.6328L2.35327 13.4414C2.36345 13.4513 2.369 13.4569 2.37217 13.4601C2.37521 13.4631 2.37388 13.4618 2.36965 13.4574L4.20788 11.7166ZM4.12479 11.6328L5.90701 9.83476C5.85485 9.78306 5.87881 9.80535 5.91061 9.8415C5.94738 9.8833 6.04832 10.0022 6.14777 10.1869C6.25418 10.3845 6.35798 10.6555 6.3918 10.9865C6.42584 11.3197 6.37906 11.6174 6.30202 11.8548L3.89405 11.0732L1.48607 10.2916C1.21893 11.1146 1.33505 11.9288 1.68981 12.5876C1.95038 13.0714 2.32855 13.4169 2.34257 13.4308L4.12479 11.6328ZM3.89405 11.0732L6.30162 11.856C6.21482 12.1229 6.06052 12.4053 5.82175 12.656C5.58703 12.9023 5.33125 13.0547 5.11705 13.1455C4.91185 13.2324 4.74207 13.2642 4.64857 13.2772C4.55412 13.2903 4.49172 13.2901 4.48535 13.2901V10.7585V8.22681C4.27046 8.22681 3.72828 8.23497 3.14252 8.48304C2.4271 8.78602 1.7785 9.39222 1.48648 10.2903L3.89405 11.0732ZM4.48535 10.7585V13.2901C4.48537 13.2901 4.4854 13.2901 4.48542 13.2901C4.48544 13.2901 4.48547 13.2901 4.48549 13.2901C4.48552 13.2901 4.48554 13.2901 4.48556 13.2901C4.48559 13.2901 4.48561 13.2901 4.48564 13.2901C4.48566 13.2901 4.48569 13.2901 4.48571 13.2901C4.48573 13.2901 4.48576 13.2901 4.48578 13.2901C4.48581 13.2901 4.48583 13.2901 4.48585 13.2901C4.48588 13.2901 4.4859 13.2901 4.48593 13.2901C4.48595 13.2901 4.48598 13.2901 4.486 13.2901C4.48602 13.2901 4.48605 13.2901 4.48607 13.2901C4.4861 13.2901 4.48612 13.2901 4.48614 13.2901C4.48617 13.2901 4.48619 13.2901 4.48622 13.2901C4.48624 13.2901 4.48627 13.2901 4.48629 13.2901C4.48631 13.2901 4.48634 13.2901 4.48636 13.2901C4.48639 13.2901 4.48641 13.2901 4.48644 13.2901C4.48646 13.2901 4.48648 13.2901 4.48651 13.2901C4.48653 13.2901 4.48656 13.2901 4.48658 13.2901C4.4866 13.2901 4.48663 13.2901 4.48665 13.2901C4.48668 13.2901 4.4867 13.2901 4.48673 13.2901C4.48675 13.2901 4.48677 13.2901 4.4868 13.2901C4.48682 13.2901 4.48685 13.2901 4.48687 13.2901C4.4869 13.2901 4.48692 13.2901 4.48694 13.2901C4.48697 13.2901 4.48699 13.2901 4.48702 13.2901C4.48704 13.2901 4.48706 13.2901 4.48709 13.2901C4.48711 13.2901 4.48714 13.2901 4.48716 13.2901C4.48719 13.2901 4.48721 13.2901 4.48723 13.2901C4.48726 13.2901 4.48728 13.2901 4.48731 13.2901C4.48733 13.2901 4.48736 13.2901 4.48738 13.2901C4.4874 13.2901 4.48743 13.2901 4.48745 13.2901C4.48748 13.2901 4.4875 13.2901 4.48752 13.2901C4.48755 13.2901 4.48757 13.2901 4.4876 13.2901C4.48762 13.2901 4.48765 13.2901 4.48767 13.2901C4.48769 13.2901 4.48772 13.2901 4.48774 13.2901C4.48777 13.2901 4.48779 13.2901 4.48782 13.2901C4.48784 13.2901 4.48786 13.2901 4.48789 13.2901C4.48791 13.2901 4.48794 13.2901 4.48796 13.2901C4.48798 13.2901 4.48801 13.2901 4.48803 13.2901C4.48806 13.2901 4.48808 13.2901 4.48811 13.2901C4.48813 13.2901 4.48815 13.2901 4.48818 13.2901C4.4882 13.2901 4.48823 13.2901 4.48825 13.2901C4.48828 13.2901 4.4883 13.2901 4.48832 13.2901C4.48835 13.2901 4.48837 13.2901 4.4884 13.2901C4.48842 13.2901 4.48845 13.2901 4.48847 13.2901C4.48849 13.2901 4.48852 13.2901 4.48854 13.2901C4.48857 13.2901 4.48859 13.2901 4.48861 13.2901C4.48864 13.2901 4.48866 13.2901 4.48869 13.2901C4.48871 13.2901 4.48874 13.2901 4.48876 13.2901C4.48878 13.2901 4.48881 13.2901 4.48883 13.2901C4.48886 13.2901 4.48888 13.2901 4.48891 13.2901C4.48893 13.2901 4.48895 13.2901 4.48898 13.2901C4.489 13.2901 4.48903 13.2901 4.48905 13.2901C4.48908 13.2901 4.4891 13.2901 4.48912 13.2901C4.48915 13.2901 4.48917 13.2901 4.4892 13.2901C4.48922 13.2901 4.48925 13.2901 4.48927 13.2901C4.48929 13.2901 4.48932 13.2901 4.48934 13.2901C4.48937 13.2901 4.48939 13.2901 4.48941 13.2901C4.48944 13.2901 4.48946 13.2901 4.48949 13.2901C4.48951 13.2901 4.48954 13.2901 4.48956 13.2901C4.48958 13.2901 4.48961 13.2901 4.48963 13.2901C4.48966 13.2901 4.48968 13.2901 4.48971 13.2901C4.48973 13.2901 4.48975 13.2901 4.48978 13.2901C4.4898 13.2901 4.48983 13.2901 4.48985 13.2901C4.48988 13.2901 4.4899 13.2901 4.48992 13.2901C4.48995 13.2901 4.48997 13.2901 4.49 13.2901C4.49002 13.2901 4.49005 13.2901 4.49007 13.2901C4.49009 13.2901 4.49012 13.2901 4.49014 13.2901C4.49017 13.2901 4.49019 13.2901 4.49022 13.2901C4.49024 13.2901 4.49026 13.2901 4.49029 13.2901C4.49031 13.2901 4.49034 13.2901 4.49036 13.2901C4.49038 13.2901 4.49041 13.2901 4.49043 13.2901C4.49046 13.2901 4.49048 13.2901 4.49051 13.2901C4.49053 13.2901 4.49055 13.2901 4.49058 13.2901C4.4906 13.2901 4.49063 13.2901 4.49065 13.2901C4.49068 13.2901 4.4907 13.2901 4.49072 13.2901C4.49075 13.2901 4.49077 13.2901 4.4908 13.2901C4.49082 13.2901 4.49085 13.2901 4.49087 13.2901C4.49089 13.2901 4.49092 13.2901 4.49094 13.2901C4.49097 13.2901 4.49099 13.2901 4.49102 13.2901C4.49104 13.2901 4.49106 13.2901 4.49109 13.2901C4.49111 13.2901 4.49114 13.2901 4.49116 13.2901C4.49119 13.2901 4.49121 13.2901 4.49123 13.2901C4.49126 13.2901 4.49128 13.2901 4.49131 13.2901C4.49133 13.2901 4.49136 13.2901 4.49138 13.2901C4.4914 13.2901 4.49143 13.2901 4.49145 13.2901C4.49148 13.2901 4.4915 13.2901 4.49153 13.2901C4.49155 13.2901 4.49157 13.2901 4.4916 13.2901C4.49162 13.2901 4.49165 13.2901 4.49167 13.2901C4.4917 13.2901 4.49172 13.2901 4.49174 13.2901C4.49177 13.2901 4.49179 13.2901 4.49182 13.2901C4.49184 13.2901 4.49187 13.2901 4.49189 13.2901C4.49191 13.2901 4.49194 13.2901 4.49196 13.2901C4.49199 13.2901 4.49201 13.2901 4.49203 13.2901C4.49206 13.2901 4.49208 13.2901 4.49211 13.2901C4.49213 13.2901 4.49216 13.2901 4.49218 13.2901C4.4922 13.2901 4.49223 13.2901 4.49225 13.2901C4.49228 13.2901 4.4923 13.2901 4.49233 13.2901C4.49235 13.2901 4.49237 13.2901 4.4924 13.2901C4.49242 13.2901 4.49245 13.2901 4.49247 13.2901C4.4925 13.2901 4.49252 13.2901 4.49254 13.2901C4.49257 13.2901 4.49259 13.2901 4.49262 13.2901C4.49264 13.2901 4.49267 13.2901 4.49269 13.2901C4.49271 13.2901 4.49274 13.2901 4.49276 13.2901C4.49279 13.2901 4.49281 13.2901 4.49284 13.2901C4.49286 13.2901 4.49288 13.2901 4.49291 13.2901C4.49293 13.2901 4.49296 13.2901 4.49298 13.2901C4.49301 13.2901 4.49303 13.2901 4.49305 13.2901C4.49308 13.2901 4.4931 13.2901 4.49313 13.2901C4.49315 13.2901 4.49318 13.2901 4.4932 13.2901C4.49322 13.2901 4.49325 13.2901 4.49327 13.2901C4.4933 13.2901 4.49332 13.2901 4.49335 13.2901C4.49337 13.2901 4.49339 13.2901 4.49342 13.2901C4.49344 13.2901 4.49347 13.2901 4.49349 13.2901C4.49352 13.2901 4.49354 13.2901 4.49356 13.2901C4.49359 13.2901 4.49361 13.2901 4.49364 13.2901C4.49366 13.2901 4.49369 13.2901 4.49371 13.2901C4.49373 13.2901 4.49376 13.2901 4.49378 13.2901C4.49381 13.2901 4.49383 13.2901 4.49386 13.2901C4.49388 13.2901 4.4939 13.2901 4.49393 13.2901C4.49395 13.2901 4.49398 13.2901 4.494 13.2901C4.49403 13.2901 4.49405 13.2901 4.49407 13.2901C4.4941 13.2901 4.49412 13.2901 4.49415 13.2901C4.49417 13.2901 4.4942 13.2901 4.49422 13.2901C4.49424 13.2901 4.49427 13.2901 4.49429 13.2901C4.49432 13.2901 4.49434 13.2901 4.49437 13.2901C4.49439 13.2901 4.49441 13.2901 4.49444 13.2901C4.49446 13.2901 4.49449 13.2901 4.49451 13.2901C4.49454 13.2901 4.49456 13.2901 4.49458 13.2901C4.49461 13.2901 4.49463 13.2901 4.49466 13.2901C4.49468 13.2901 4.49471 13.2901 4.49473 13.2901C4.49475 13.2901 4.49478 13.2901 4.4948 13.2901C4.49483 13.2901 4.49485 13.2901 4.49488 13.2901C4.4949 13.2901 4.49492 13.2901 4.49495 13.2901C4.49497 13.2901 4.495 13.2901 4.49502 13.2901C4.49505 13.2901 4.49507 13.2901 4.49509 13.2901C4.49512 13.2901 4.49514 13.2901 4.49517 13.2901C4.49519 13.2901 4.49522 13.2901 4.49524 13.2901C4.49526 13.2901 4.49529 13.2901 4.49531 13.2901C4.49534 13.2901 4.49536 13.2901 4.49539 13.2901C4.49541 13.2901 4.49543 13.2901 4.49546 13.2901C4.49548 13.2901 4.49551 13.2901 4.49553 13.2901C4.49556 13.2901 4.49558 13.2901 4.4956 13.2901C4.49563 13.2901 4.49565 13.2901 4.49568 13.2901C4.4957 13.2901 4.49573 13.2901 4.49575 13.2901C4.49577 13.2901 4.4958 13.2901 4.49582 13.2901C4.49585 13.2901 4.49587 13.2901 4.4959 13.2901C4.49592 13.2901 4.49594 13.2901 4.49597 13.2901C4.49599 13.2901 4.49602 13.2901 4.49604 13.2901C4.49607 13.2901 4.49609 13.2901 4.49611 13.2901C4.49614 13.2901 4.49616 13.2901 4.49619 13.2901C4.49621 13.2901 4.49624 13.2901 4.49626 13.2901C4.49628 13.2901 4.49631 13.2901 4.49633 13.2901C4.49636 13.2901 4.49638 13.2901 4.49641 13.2901C4.49643 13.2901 4.49645 13.2901 4.49648 13.2901C4.4965 13.2901 4.49653 13.2901 4.49655 13.2901C4.49658 13.2901 4.4966 13.2901 4.49662 13.2901C4.49665 13.2901 4.49667 13.2901 4.4967 13.2901C4.49672 13.2901 4.49675 13.2901 4.49677 13.2901C4.49679 13.2901 4.49682 13.2901 4.49684 13.2901C4.49687 13.2901 4.49689 13.2901 4.49692 13.2901C4.49694 13.2901 4.49696 13.2901 4.49699 13.2901C4.49701 13.2901 4.49704 13.2901 4.49706 13.2901C4.49709 13.2901 4.49711 13.2901 4.49713 13.2901C4.49716 13.2901 4.49718 13.2901 4.49721 13.2901C4.49723 13.2901 4.49726 13.2901 4.49728 13.2901C4.4973 13.2901 4.49733 13.2901 4.49735 13.2901C4.49738 13.2901 4.4974 13.2901 4.49743 13.2901C4.49745 13.2901 4.49747 13.2901 4.4975 13.2901C4.49752 13.2901 4.49755 13.2901 4.49757 13.2901C4.4976 13.2901 4.49762 13.2901 4.49764 13.2901C4.49767 13.2901 4.49769 13.2901 4.49772 13.2901C4.49774 13.2901 4.49777 13.2901 4.49779 13.2901C4.49781 13.2901 4.49784 13.2901 4.49786 13.2901C4.49789 13.2901 4.49791 13.2901 4.49794 13.2901C4.49796 13.2901 4.49799 13.2901 4.49801 13.2901C4.49803 13.2901 4.49806 13.2901 4.49808 13.2901C4.49811 13.2901 4.49813 13.2901 4.49815 13.2901C4.49818 13.2901 4.4982 13.2901 4.49823 13.2901C4.49825 13.2901 4.49828 13.2901 4.4983 13.2901C4.49832 13.2901 4.49835 13.2901 4.49837 13.2901C4.4984 13.2901 4.49842 13.2901 4.49845 13.2901C4.49847 13.2901 4.49849 13.2901 4.49852 13.2901C4.49854 13.2901 4.49857 13.2901 4.49859 13.2901C4.49862 13.2901 4.49864 13.2901 4.49866 13.2901C4.49869 13.2901 4.49871 13.2901 4.49874 13.2901C4.49876 13.2901 4.49879 13.2901 4.49881 13.2901C4.49883 13.2901 4.49886 13.2901 4.49888 13.2901C4.49891 13.2901 4.49893 13.2901 4.49896 13.2901C4.49898 13.2901 4.49901 13.2901 4.49903 13.2901C4.49905 13.2901 4.49908 13.2901 4.4991 13.2901C4.49913 13.2901 4.49915 13.2901 4.49918 13.2901C4.4992 13.2901 4.49922 13.2901 4.49925 13.2901C4.49927 13.2901 4.4993 13.2901 4.49932 13.2901C4.49934 13.2901 4.49937 13.2901 4.49939 13.2901C4.49942 13.2901 4.49944 13.2901 4.49947 13.2901C4.49949 13.2901 4.49951 13.2901 4.49954 13.2901C4.49956 13.2901 4.49959 13.2901 4.49961 13.2901C4.49964 13.2901 4.49966 13.2901 4.49968 13.2901C4.49971 13.2901 4.49973 13.2901 4.49976 13.2901C4.49978 13.2901 4.49981 13.2901 4.49983 13.2901C4.49985 13.2901 4.49988 13.2901 4.4999 13.2901C4.49993 13.2901 4.49995 13.2901 4.49998 13.2901C4.5 13.2901 4.50002 13.2901 4.50005 13.2901C4.50007 13.2901 4.5001 13.2901 4.50012 13.2901C4.50015 13.2901 4.50017 13.2901 4.50019 13.2901C4.50022 13.2901 4.50024 13.2901 4.50027 13.2901C4.50029 13.2901 4.50032 13.2901 4.50034 13.2901C4.50036 13.2901 4.50039 13.2901 4.50041 13.2901C4.50044 13.2901 4.50046 13.2901 4.50049 13.2901C4.50051 13.2901 4.50053 13.2901 4.50056 13.2901C4.50058 13.2901 4.50061 13.2901 4.50063 13.2901C4.50066 13.2901 4.50068 13.2901 4.5007 13.2901C4.50073 13.2901 4.50075 13.2901 4.50078 13.2901C4.5008 13.2901 4.50083 13.2901 4.50085 13.2901C4.50087 13.2901 4.5009 13.2901 4.50092 13.2901C4.50095 13.2901 4.50097 13.2901 4.501 13.2901C4.50102 13.2901 4.50104 13.2901 4.50107 13.2901C4.50109 13.2901 4.50112 13.2901 4.50114 13.2901C4.50117 13.2901 4.50119 13.2901 4.50121 13.2901C4.50124 13.2901 4.50126 13.2901 4.50129 13.2901C4.50131 13.2901 4.50134 13.2901 4.50136 13.2901C4.50138 13.2901 4.50141 13.2901 4.50143 13.2901C4.50146 13.2901 4.50148 13.2901 4.50151 13.2901C4.50153 13.2901 4.50155 13.2901 4.50158 13.2901C4.5016 13.2901 4.50163 13.2901 4.50165 13.2901C4.50168 13.2901 4.5017 13.2901 4.50172 13.2901C4.50175 13.2901 4.50177 13.2901 4.5018 13.2901C4.50182 13.2901 4.50185 13.2901 4.50187 13.2901C4.50189 13.2901 4.50192 13.2901 4.50194 13.2901C4.50197 13.2901 4.50199 13.2901 4.50202 13.2901C4.50204 13.2901 4.50206 13.2901 4.50209 13.2901C4.50211 13.2901 4.50214 13.2901 4.50216 13.2901C4.50218 13.2901 4.50221 13.2901 4.50223 13.2901C4.50226 13.2901 4.50228 13.2901 4.50231 13.2901C4.50233 13.2901 4.50235 13.2901 4.50238 13.2901C4.5024 13.2901 4.50243 13.2901 4.50245 13.2901C4.50248 13.2901 4.5025 13.2901 4.50252 13.2901C4.50255 13.2901 4.50257 13.2901 4.5026 13.2901C4.50262 13.2901 4.50265 13.2901 4.50267 13.2901C4.50269 13.2901 4.50272 13.2901 4.50274 13.2901C4.50277 13.2901 4.50279 13.2901 4.50282 13.2901C4.50284 13.2901 4.50286 13.2901 4.50289 13.2901C4.50291 13.2901 4.50294 13.2901 4.50296 13.2901C4.50299 13.2901 4.50301 13.2901 4.50303 13.2901C4.50306 13.2901 4.50308 13.2901 4.50311 13.2901C4.50313 13.2901 4.50316 13.2901 4.50318 13.2901C4.5032 13.2901 4.50323 13.2901 4.50325 13.2901C4.50328 13.2901 4.5033 13.2901 4.50333 13.2901C4.50335 13.2901 4.50337 13.2901 4.5034 13.2901C4.50342 13.2901 4.50345 13.2901 4.50347 13.2901C4.50349 13.2901 4.50352 13.2901 4.50354 13.2901C4.50357 13.2901 4.50359 13.2901 4.50362 13.2901C4.50364 13.2901 4.50366 13.2901 4.50369 13.2901C4.50371 13.2901 4.50374 13.2901 4.50376 13.2901C4.50379 13.2901 4.50381 13.2901 4.50383 13.2901C4.50386 13.2901 4.50388 13.2901 4.50391 13.2901C4.50393 13.2901 4.50396 13.2901 4.50398 13.2901C4.504 13.2901 4.50403 13.2901 4.50405 13.2901C4.50408 13.2901 4.5041 13.2901 4.50413 13.2901C4.50415 13.2901 4.50417 13.2901 4.5042 13.2901C4.50422 13.2901 4.50425 13.2901 4.50427 13.2901C4.50429 13.2901 4.50432 13.2901 4.50434 13.2901C4.50437 13.2901 4.50439 13.2901 4.50442 13.2901C4.50444 13.2901 4.50446 13.2901 4.50449 13.2901C4.50451 13.2901 4.50454 13.2901 4.50456 13.2901C4.50459 13.2901 4.50461 13.2901 4.50463 13.2901C4.50466 13.2901 4.50468 13.2901 4.50471 13.2901C4.50473 13.2901 4.50476 13.2901 4.50478 13.2901C4.5048 13.2901 4.50483 13.2901 4.50485 13.2901C4.50488 13.2901 4.5049 13.2901 4.50492 13.2901C4.50495 13.2901 4.50497 13.2901 4.505 13.2901C4.50502 13.2901 4.50505 13.2901 4.50507 13.2901C4.50509 13.2901 4.50512 13.2901 4.50514 13.2901C4.50517 13.2901 4.50519 13.2901 4.50522 13.2901C4.50524 13.2901 4.50526 13.2901 4.50529 13.2901C4.50531 13.2901 4.50534 13.2901 4.50536 13.2901C4.50539 13.2901 4.50541 13.2901 4.50543 13.2901C4.50546 13.2901 4.50548 13.2901 4.50551 13.2901C4.50553 13.2901 4.50555 13.2901 4.50558 13.2901C4.5056 13.2901 4.50563 13.2901 4.50565 13.2901C4.50568 13.2901 4.5057 13.2901 4.50572 13.2901C4.50575 13.2901 4.50577 13.2901 4.5058 13.2901C4.50582 13.2901 4.50585 13.2901 4.50587 13.2901C4.50589 13.2901 4.50592 13.2901 4.50594 13.2901C4.50597 13.2901 4.50599 13.2901 4.50601 13.2901C4.50604 13.2901 4.50606 13.2901 4.50609 13.2901C4.50611 13.2901 4.50614 13.2901 4.50616 13.2901C4.50618 13.2901 4.50621 13.2901 4.50623 13.2901C4.50626 13.2901 4.50628 13.2901 4.50631 13.2901C4.50633 13.2901 4.50635 13.2901 4.50638 13.2901C4.5064 13.2901 4.50643 13.2901 4.50645 13.2901C4.50647 13.2901 4.5065 13.2901 4.50652 13.2901C4.50655 13.2901 4.50657 13.2901 4.5066 13.2901C4.50662 13.2901 4.50664 13.2901 4.50667 13.2901C4.50669 13.2901 4.50672 13.2901 4.50674 13.2901C4.50677 13.2901 4.50679 13.2901 4.50681 13.2901C4.50684 13.2901 4.50686 13.2901 4.50689 13.2901C4.50691 13.2901 4.50693 13.2901 4.50696 13.2901C4.50698 13.2901 4.50701 13.2901 4.50703 13.2901C4.50706 13.2901 4.50708 13.2901 4.5071 13.2901C4.50713 13.2901 4.50715 13.2901 4.50718 13.2901C4.5072 13.2901 4.50722 13.2901 4.50725 13.2901C4.50727 13.2901 4.5073 13.2901 4.50732 13.2901C4.50735 13.2901 4.50737 13.2901 4.50739 13.2901C4.50742 13.2901 4.50744 13.2901 4.50747 13.2901C4.50749 13.2901 4.50751 13.2901 4.50754 13.2901C4.50756 13.2901 4.50759 13.2901 4.50761 13.2901C4.50764 13.2901 4.50766 13.2901 4.50768 13.2901C4.50771 13.2901 4.50773 13.2901 4.50776 13.2901C4.50778 13.2901 4.50781 13.2901 4.50783 13.2901C4.50785 13.2901 4.50788 13.2901 4.5079 13.2901C4.50793 13.2901 4.50795 13.2901 4.50797 13.2901C4.508 13.2901 4.50802 13.2901 4.50805 13.2901C4.50807 13.2901 4.5081 13.2901 4.50812 13.2901C4.50814 13.2901 4.50817 13.2901 4.50819 13.2901C4.50822 13.2901 4.50824 13.2901 4.50826 13.2901C4.50829 13.2901 4.50831 13.2901 4.50834 13.2901C4.50836 13.2901 4.50839 13.2901 4.50841 13.2901C4.50843 13.2901 4.50846 13.2901 4.50848 13.2901C4.50851 13.2901 4.50853 13.2901 4.50855 13.2901C4.50858 13.2901 4.5086 13.2901 4.50863 13.2901C4.50865 13.2901 4.50868 13.2901 4.5087 13.2901C4.50872 13.2901 4.50875 13.2901 4.50877 13.2901C4.5088 13.2901 4.50882 13.2901 4.50884 13.2901C4.50887 13.2901 4.50889 13.2901 4.50892 13.2901C4.50894 13.2901 4.50897 13.2901 4.50899 13.2901C4.50901 13.2901 4.50904 13.2901 4.50906 13.2901C4.50909 13.2901 4.50911 13.2901 4.50913 13.2901C4.50916 13.2901 4.50918 13.2901 4.50921 13.2901C4.50923 13.2901 4.50925 13.2901 4.50928 13.2901C4.5093 13.2901 4.50933 13.2901 4.50935 13.2901C4.50938 13.2901 4.5094 13.2901 4.50942 13.2901C4.50945 13.2901 4.50947 13.2901 4.5095 13.2901C4.50952 13.2901 4.50954 13.2901 4.50957 13.2901C4.50959 13.2901 4.50962 13.2901 4.50964 13.2901C4.50967 13.2901 4.50969 13.2901 4.50971 13.2901C4.50974 13.2901 4.50976 13.2901 4.50979 13.2901C4.50981 13.2901 4.50983 13.2901 4.50986 13.2901C4.50988 13.2901 4.50991 13.2901 4.50993 13.2901C4.50995 13.2901 4.50998 13.2901 4.51 13.2901C4.51003 13.2901 4.51005 13.2901 4.51008 13.2901C4.5101 13.2901 4.51012 13.2901 4.51015 13.2901C4.51017 13.2901 4.5102 13.2901 4.51022 13.2901C4.51024 13.2901 4.51027 13.2901 4.51029 13.2901C4.51032 13.2901 4.51034 13.2901 4.51036 13.2901C4.51039 13.2901 4.51041 13.2901 4.51044 13.2901C4.51046 13.2901 4.51049 13.2901 4.51051 13.2901C4.51053 13.2901 4.51056 13.2901 4.51058 13.2901C4.51061 13.2901 4.51063 13.2901 4.51065 13.2901C4.51068 13.2901 4.5107 13.2901 4.51073 13.2901C4.51075 13.2901 4.51077 13.2901 4.5108 13.2901C4.51082 13.2901 4.51085 13.2901 4.51087 13.2901C4.5109 13.2901 4.51092 13.2901 4.51094 13.2901C4.51097 13.2901 4.51099 13.2901 4.51102 13.2901C4.51104 13.2901 4.51106 13.2901 4.51109 13.2901C4.51111 13.2901 4.51114 13.2901 4.51116 13.2901C4.51118 13.2901 4.51121 13.2901 4.51123 13.2901C4.51126 13.2901 4.51128 13.2901 4.51131 13.2901C4.51133 13.2901 4.51135 13.2901 4.51138 13.2901C4.5114 13.2901 4.51143 13.2901 4.51145 13.2901C4.51147 13.2901 4.5115 13.2901 4.51152 13.2901C4.51155 13.2901 4.51157 13.2901 4.51159 13.2901C4.51162 13.2901 4.51164 13.2901 4.51167 13.2901C4.51169 13.2901 4.51171 13.2901 4.51174 13.2901C4.51176 13.2901 4.51179 13.2901 4.51181 13.2901C4.51183 13.2901 4.51186 13.2901 4.51188 13.2901C4.51191 13.2901 4.51193 13.2901 4.51196 13.2901C4.51198 13.2901 4.512 13.2901 4.51203 13.2901C4.51205 13.2901 4.51208 13.2901 4.5121 13.2901C4.51212 13.2901 4.51215 13.2901 4.51217 13.2901C4.5122 13.2901 4.51222 13.2901 4.51224 13.2901C4.51227 13.2901 4.51229 13.2901 4.51232 13.2901C4.51234 13.2901 4.51236 13.2901 4.51239 13.2901C4.51241 13.2901 4.51244 13.2901 4.51246 13.2901C4.51248 13.2901 4.51251 13.2901 4.51253 13.2901C4.51256 13.2901 4.51258 13.2901 4.51261 13.2901C4.51263 13.2901 4.51265 13.2901 4.51268 13.2901C4.5127 13.2901 4.51273 13.2901 4.51275 13.2901C4.51277 13.2901 4.5128 13.2901 4.51282 13.2901C4.51285 13.2901 4.51287 13.2901 4.51289 13.2901C4.51292 13.2901 4.51294 13.2901 4.51297 13.2901C4.51299 13.2901 4.51301 13.2901 4.51304 13.2901C4.51306 13.2901 4.51309 13.2901 4.51311 13.2901C4.51313 13.2901 4.51316 13.2901 4.51318 13.2901C4.51321 13.2901 4.51323 13.2901 4.51325 13.2901C4.51328 13.2901 4.5133 13.2901 4.51333 13.2901C4.51335 13.2901 4.51337 13.2901 4.5134 13.2901C4.51342 13.2901 4.51345 13.2901 4.51347 13.2901C4.51349 13.2901 4.51352 13.2901 4.51354 13.2901C4.51357 13.2901 4.51359 13.2901 4.51362 13.2901C4.51364 13.2901 4.51366 13.2901 4.51369 13.2901C4.51371 13.2901 4.51374 13.2901 4.51376 13.2901C4.51378 13.2901 4.51381 13.2901 4.51383 13.2901C4.51386 13.2901 4.51388 13.2901 4.5139 13.2901C4.51393 13.2901 4.51395 13.2901 4.51398 13.2901C4.514 13.2901 4.51402 13.2901 4.51405 13.2901C4.51407 13.2901 4.5141 13.2901 4.51412 13.2901C4.51414 13.2901 4.51417 13.2901 4.51419 13.2901C4.51422 13.2901 4.51424 13.2901 4.51426 13.2901C4.51429 13.2901 4.51431 13.2901 4.51434 13.2901C4.51436 13.2901 4.51438 13.2901 4.51441 13.2901C4.51443 13.2901 4.51446 13.2901 4.51448 13.2901C4.5145 13.2901 4.51453 13.2901 4.51455 13.2901C4.51458 13.2901 4.5146 13.2901 4.51462 13.2901C4.51465 13.2901 4.51467 13.2901 4.5147 13.2901C4.51472 13.2901 4.51474 13.2901 4.51477 13.2901C4.51479 13.2901 4.51482 13.2901 4.51484 13.2901C4.51486 13.2901 4.51489 13.2901 4.51491 13.2901C4.51494 13.2901 4.51496 13.2901 4.51498 13.2901C4.51501 13.2901 4.51503 13.2901 4.51506 13.2901C4.51508 13.2901 4.5151 13.2901 4.51513 13.2901C4.51515 13.2901 4.51518 13.2901 4.5152 13.2901C4.51522 13.2901 4.51525 13.2901 4.51527 13.2901C4.5153 13.2901 4.51532 13.2901 4.51534 13.2901C4.51537 13.2901 4.51539 13.2901 4.51542 13.2901C4.51544 13.2901 4.51546 13.2901 4.51549 13.2901C4.51551 13.2901 4.51553 13.2901 4.51556 13.2901C4.51558 13.2901 4.51561 13.2901 4.51563 13.2901C4.51565 13.2901 4.51568 13.2901 4.5157 13.2901C4.51573 13.2901 4.51575 13.2901 4.51577 13.2901C4.5158 13.2901 4.51582 13.2901 4.51585 13.2901C4.51587 13.2901 4.51589 13.2901 4.51592 13.2901C4.51594 13.2901 4.51597 13.2901 4.51599 13.2901C4.51601 13.2901 4.51604 13.2901 4.51606 13.2901C4.51609 13.2901 4.51611 13.2901 4.51613 13.2901C4.51616 13.2901 4.51618 13.2901 4.51621 13.2901C4.51623 13.2901 4.51625 13.2901 4.51628 13.2901C4.5163 13.2901 4.51633 13.2901 4.51635 13.2901C4.51637 13.2901 4.5164 13.2901 4.51642 13.2901C4.51645 13.2901 4.51647 13.2901 4.51649 13.2901C4.51652 13.2901 4.51654 13.2901 4.51656 13.2901C4.51659 13.2901 4.51661 13.2901 4.51664 13.2901C4.51666 13.2901 4.51668 13.2901 4.51671 13.2901C4.51673 13.2901 4.51676 13.2901 4.51678 13.2901C4.5168 13.2901 4.51683 13.2901 4.51685 13.2901C4.51688 13.2901 4.5169 13.2901 4.51692 13.2901C4.51695 13.2901 4.51697 13.2901 4.517 13.2901C4.51702 13.2901 4.51704 13.2901 4.51707 13.2901C4.51709 13.2901 4.51711 13.2901 4.51714 13.2901C4.51716 13.2901 4.51719 13.2901 4.51721 13.2901C4.51723 13.2901 4.51726 13.2901 4.51728 13.2901C4.51731 13.2901 4.51733 13.2901 4.51735 13.2901C4.51738 13.2901 4.5174 13.2901 4.51743 13.2901C4.51745 13.2901 4.51747 13.2901 4.5175 13.2901C4.51752 13.2901 4.51755 13.2901 4.51757 13.2901C4.51759 13.2901 4.51762 13.2901 4.51764 13.2901C4.51766 13.2901 4.51769 13.2901 4.51771 13.2901C4.51774 13.2901 4.51776 13.2901 4.51778 13.2901C4.51781 13.2901 4.51783 13.2901 4.51786 13.2901C4.51788 13.2901 4.5179 13.2901 4.51793 13.2901C4.51795 13.2901 4.51798 13.2901 4.518 13.2901C4.51802 13.2901 4.51805 13.2901 4.51807 13.2901C4.51809 13.2901 4.51812 13.2901 4.51814 13.2901C4.51817 13.2901 4.51819 13.2901 4.51821 13.2901C4.51824 13.2901 4.51826 13.2901 4.51829 13.2901C4.51831 13.2901 4.51833 13.2901 4.51836 13.2901C4.51838 13.2901 4.5184 13.2901 4.51843 13.2901C4.51845 13.2901 4.51848 13.2901 4.5185 13.2901C4.51852 13.2901 4.51855 13.2901 4.51857 13.2901C4.5186 13.2901 4.51862 13.2901 4.51864 13.2901C4.51867 13.2901 4.51869 13.2901 4.51871 13.2901C4.51874 13.2901 4.51876 13.2901 4.51879 13.2901C4.51881 13.2901 4.51883 13.2901 4.51886 13.2901C4.51888 13.2901 4.51891 13.2901 4.51893 13.2901C4.51895 13.2901 4.51898 13.2901 4.519 13.2901C4.51902 13.2901 4.51905 13.2901 4.51907 13.2901C4.5191 13.2901 4.51912 13.2901 4.51914 13.2901C4.51917 13.2901 4.51919 13.2901 4.51922 13.2901C4.51924 13.2901 4.51926 13.2901 4.51929 13.2901C4.51931 13.2901 4.51933 13.2901 4.51936 13.2901C4.51938 13.2901 4.51941 13.2901 4.51943 13.2901C4.51945 13.2901 4.51948 13.2901 4.5195 13.2901C4.51953 13.2901 4.51955 13.2901 4.51957 13.2901C4.5196 13.2901 4.51962 13.2901 4.51964 13.2901C4.51967 13.2901 4.51969 13.2901 4.51972 13.2901C4.51974 13.2901 4.51976 13.2901 4.51979 13.2901C4.51981 13.2901 4.51983 13.2901 4.51986 13.2901C4.51988 13.2901 4.51991 13.2901 4.51993 13.2901C4.51995 13.2901 4.51998 13.2901 4.52 13.2901C4.52003 13.2901 4.52005 13.2901 4.52007 13.2901C4.5201 13.2901 4.52012 13.2901 4.52014 13.2901C4.52017 13.2901 4.52019 13.2901 4.52022 13.2901C4.52024 13.2901 4.52026 13.2901 4.52029 13.2901C4.52031 13.2901 4.52033 13.2901 4.52036 13.2901C4.52038 13.2901 4.52041 13.2901 4.52043 13.2901C4.52045 13.2901 4.52048 13.2901 4.5205 13.2901C4.52052 13.2901 4.52055 13.2901 4.52057 13.2901C4.5206 13.2901 4.52062 13.2901 4.52064 13.2901C4.52067 13.2901 4.52069 13.2901 4.52071 13.2901C4.52074 13.2901 4.52076 13.2901 4.52079 13.2901C4.52081 13.2901 4.52083 13.2901 4.52086 13.2901C4.52088 13.2901 4.5209 13.2901 4.52093 13.2901C4.52095 13.2901 4.52098 13.2901 4.521 13.2901C4.52102 13.2901 4.52105 13.2901 4.52107 13.2901C4.52109 13.2901 4.52112 13.2901 4.52114 13.2901C4.52117 13.2901 4.52119 13.2901 4.52121 13.2901C4.52124 13.2901 4.52126 13.2901 4.52128 13.2901C4.52131 13.2901 4.52133 13.2901 4.52136 13.2901C4.52138 13.2901 4.5214 13.2901 4.52143 13.2901C4.52145 13.2901 4.52147 13.2901 4.5215 13.2901C4.52152 13.2901 4.52155 13.2901 4.52157 13.2901C4.52159 13.2901 4.52162 13.2901 4.52164 13.2901C4.52166 13.2901 4.52169 13.2901 4.52171 13.2901C4.52174 13.2901 4.52176 13.2901 4.52178 13.2901C4.52181 13.2901 4.52183 13.2901 4.52185 13.2901C4.52188 13.2901 4.5219 13.2901 4.52193 13.2901C4.52195 13.2901 4.52197 13.2901 4.522 13.2901C4.52202 13.2901 4.52204 13.2901 4.52207 13.2901C4.52209 13.2901 4.52211 13.2901 4.52214 13.2901C4.52216 13.2901 4.52219 13.2901 4.52221 13.2901C4.52223 13.2901 4.52226 13.2901 4.52228 13.2901C4.5223 13.2901 4.52233 13.2901 4.52235 13.2901C4.52238 13.2901 4.5224 13.2901 4.52242 13.2901V10.7585V8.22681C4.5224 8.22681 4.52238 8.22681 4.52235 8.22681C4.52233 8.22681 4.5223 8.22681 4.52228 8.22681C4.52226 8.22681 4.52223 8.22681 4.52221 8.22681C4.52219 8.22681 4.52216 8.22681 4.52214 8.22681C4.52211 8.22681 4.52209 8.22681 4.52207 8.22681C4.52204 8.22681 4.52202 8.22681 4.522 8.22681C4.52197 8.22681 4.52195 8.22681 4.52193 8.22681C4.5219 8.22681 4.52188 8.22681 4.52185 8.22681C4.52183 8.22681 4.52181 8.22681 4.52178 8.22681C4.52176 8.22681 4.52174 8.22681 4.52171 8.22681C4.52169 8.22681 4.52166 8.22681 4.52164 8.22681C4.52162 8.22681 4.52159 8.22681 4.52157 8.22681C4.52155 8.22681 4.52152 8.22681 4.5215 8.22681C4.52147 8.22681 4.52145 8.22681 4.52143 8.22681C4.5214 8.22681 4.52138 8.22681 4.52136 8.22681C4.52133 8.22681 4.52131 8.22681 4.52128 8.22681C4.52126 8.22681 4.52124 8.22681 4.52121 8.22681C4.52119 8.22681 4.52117 8.22681 4.52114 8.22681C4.52112 8.22681 4.52109 8.22681 4.52107 8.22681C4.52105 8.22681 4.52102 8.22681 4.521 8.22681C4.52098 8.22681 4.52095 8.22681 4.52093 8.22681C4.5209 8.22681 4.52088 8.22681 4.52086 8.22681C4.52083 8.22681 4.52081 8.22681 4.52079 8.22681C4.52076 8.22681 4.52074 8.22681 4.52071 8.22681C4.52069 8.22681 4.52067 8.22681 4.52064 8.22681C4.52062 8.22681 4.5206 8.22681 4.52057 8.22681C4.52055 8.22681 4.52052 8.22681 4.5205 8.22681C4.52048 8.22681 4.52045 8.22681 4.52043 8.22681C4.52041 8.22681 4.52038 8.22681 4.52036 8.22681C4.52033 8.22681 4.52031 8.22681 4.52029 8.22681C4.52026 8.22681 4.52024 8.22681 4.52022 8.22681C4.52019 8.22681 4.52017 8.22681 4.52014 8.22681C4.52012 8.22681 4.5201 8.22681 4.52007 8.22681C4.52005 8.22681 4.52003 8.22681 4.52 8.22681C4.51998 8.22681 4.51995 8.22681 4.51993 8.22681C4.51991 8.22681 4.51988 8.22681 4.51986 8.22681C4.51983 8.22681 4.51981 8.22681 4.51979 8.22681C4.51976 8.22681 4.51974 8.22681 4.51972 8.22681C4.51969 8.22681 4.51967 8.22681 4.51964 8.22681C4.51962 8.22681 4.5196 8.22681 4.51957 8.22681C4.51955 8.22681 4.51953 8.22681 4.5195 8.22681C4.51948 8.22681 4.51945 8.22681 4.51943 8.22681C4.51941 8.22681 4.51938 8.22681 4.51936 8.22681C4.51933 8.22681 4.51931 8.22681 4.51929 8.22681C4.51926 8.22681 4.51924 8.22681 4.51922 8.22681C4.51919 8.22681 4.51917 8.22681 4.51914 8.22681C4.51912 8.22681 4.5191 8.22681 4.51907 8.22681C4.51905 8.22681 4.51902 8.22681 4.519 8.22681C4.51898 8.22681 4.51895 8.22681 4.51893 8.22681C4.51891 8.22681 4.51888 8.22681 4.51886 8.22681C4.51883 8.22681 4.51881 8.22681 4.51879 8.22681C4.51876 8.22681 4.51874 8.22681 4.51871 8.22681C4.51869 8.22681 4.51867 8.22681 4.51864 8.22681C4.51862 8.22681 4.5186 8.22681 4.51857 8.22681C4.51855 8.22681 4.51852 8.22681 4.5185 8.22681C4.51848 8.22681 4.51845 8.22681 4.51843 8.22681C4.5184 8.22681 4.51838 8.22681 4.51836 8.22681C4.51833 8.22681 4.51831 8.22681 4.51829 8.22681C4.51826 8.22681 4.51824 8.22681 4.51821 8.22681C4.51819 8.22681 4.51817 8.22681 4.51814 8.22681C4.51812 8.22681 4.51809 8.22681 4.51807 8.22681C4.51805 8.22681 4.51802 8.22681 4.518 8.22681C4.51798 8.22681 4.51795 8.22681 4.51793 8.22681C4.5179 8.22681 4.51788 8.22681 4.51786 8.22681C4.51783 8.22681 4.51781 8.22681 4.51778 8.22681C4.51776 8.22681 4.51774 8.22681 4.51771 8.22681C4.51769 8.22681 4.51766 8.22681 4.51764 8.22681C4.51762 8.22681 4.51759 8.22681 4.51757 8.22681C4.51755 8.22681 4.51752 8.22681 4.5175 8.22681C4.51747 8.22681 4.51745 8.22681 4.51743 8.22681C4.5174 8.22681 4.51738 8.22681 4.51735 8.22681C4.51733 8.22681 4.51731 8.22681 4.51728 8.22681C4.51726 8.22681 4.51723 8.22681 4.51721 8.22681C4.51719 8.22681 4.51716 8.22681 4.51714 8.22681C4.51711 8.22681 4.51709 8.22681 4.51707 8.22681C4.51704 8.22681 4.51702 8.22681 4.517 8.22681C4.51697 8.22681 4.51695 8.22681 4.51692 8.22681C4.5169 8.22681 4.51688 8.22681 4.51685 8.22681C4.51683 8.22681 4.5168 8.22681 4.51678 8.22681C4.51676 8.22681 4.51673 8.22681 4.51671 8.22681C4.51668 8.22681 4.51666 8.22681 4.51664 8.22681C4.51661 8.22681 4.51659 8.22681 4.51656 8.22681C4.51654 8.22681 4.51652 8.22681 4.51649 8.22681C4.51647 8.22681 4.51645 8.22681 4.51642 8.22681C4.5164 8.22681 4.51637 8.22681 4.51635 8.22681C4.51633 8.22681 4.5163 8.22681 4.51628 8.22681C4.51625 8.22681 4.51623 8.22681 4.51621 8.22681C4.51618 8.22681 4.51616 8.22681 4.51613 8.22681C4.51611 8.22681 4.51609 8.22681 4.51606 8.22681C4.51604 8.22681 4.51601 8.22681 4.51599 8.22681C4.51597 8.22681 4.51594 8.22681 4.51592 8.22681C4.51589 8.22681 4.51587 8.22681 4.51585 8.22681C4.51582 8.22681 4.5158 8.22681 4.51577 8.22681C4.51575 8.22681 4.51573 8.22681 4.5157 8.22681C4.51568 8.22681 4.51565 8.22681 4.51563 8.22681C4.51561 8.22681 4.51558 8.22681 4.51556 8.22681C4.51553 8.22681 4.51551 8.22681 4.51549 8.22681C4.51546 8.22681 4.51544 8.22681 4.51542 8.22681C4.51539 8.22681 4.51537 8.22681 4.51534 8.22681C4.51532 8.22681 4.5153 8.22681 4.51527 8.22681C4.51525 8.22681 4.51522 8.22681 4.5152 8.22681C4.51518 8.22681 4.51515 8.22681 4.51513 8.22681C4.5151 8.22681 4.51508 8.22681 4.51506 8.22681C4.51503 8.22681 4.51501 8.22681 4.51498 8.22681C4.51496 8.22681 4.51494 8.22681 4.51491 8.22681C4.51489 8.22681 4.51486 8.22681 4.51484 8.22681C4.51482 8.22681 4.51479 8.22681 4.51477 8.22681C4.51474 8.22681 4.51472 8.22681 4.5147 8.22681C4.51467 8.22681 4.51465 8.22681 4.51462 8.22681C4.5146 8.22681 4.51458 8.22681 4.51455 8.22681C4.51453 8.22681 4.5145 8.22681 4.51448 8.22681C4.51446 8.22681 4.51443 8.22681 4.51441 8.22681C4.51438 8.22681 4.51436 8.22681 4.51434 8.22681C4.51431 8.22681 4.51429 8.22681 4.51426 8.22681C4.51424 8.22681 4.51422 8.22681 4.51419 8.22681C4.51417 8.22681 4.51414 8.22681 4.51412 8.22681C4.5141 8.22681 4.51407 8.22681 4.51405 8.22681C4.51402 8.22681 4.514 8.22681 4.51398 8.22681C4.51395 8.22681 4.51393 8.22681 4.5139 8.22681C4.51388 8.22681 4.51386 8.22681 4.51383 8.22681C4.51381 8.22681 4.51378 8.22681 4.51376 8.22681C4.51374 8.22681 4.51371 8.22681 4.51369 8.22681C4.51366 8.22681 4.51364 8.22681 4.51362 8.22681C4.51359 8.22681 4.51357 8.22681 4.51354 8.22681C4.51352 8.22681 4.51349 8.22681 4.51347 8.22681C4.51345 8.22681 4.51342 8.22681 4.5134 8.22681C4.51337 8.22681 4.51335 8.22681 4.51333 8.22681C4.5133 8.22681 4.51328 8.22681 4.51325 8.22681C4.51323 8.22681 4.51321 8.22681 4.51318 8.22681C4.51316 8.22681 4.51313 8.22681 4.51311 8.22681C4.51309 8.22681 4.51306 8.22681 4.51304 8.22681C4.51301 8.22681 4.51299 8.22681 4.51297 8.22681C4.51294 8.22681 4.51292 8.22681 4.51289 8.22681C4.51287 8.22681 4.51285 8.22681 4.51282 8.22681C4.5128 8.22681 4.51277 8.22681 4.51275 8.22681C4.51273 8.22681 4.5127 8.22681 4.51268 8.22681C4.51265 8.22681 4.51263 8.22681 4.51261 8.22681C4.51258 8.22681 4.51256 8.22681 4.51253 8.22681C4.51251 8.22681 4.51248 8.22681 4.51246 8.22681C4.51244 8.22681 4.51241 8.22681 4.51239 8.22681C4.51236 8.22681 4.51234 8.22681 4.51232 8.22681C4.51229 8.22681 4.51227 8.22681 4.51224 8.22681C4.51222 8.22681 4.5122 8.22681 4.51217 8.22681C4.51215 8.22681 4.51212 8.22681 4.5121 8.22681C4.51208 8.22681 4.51205 8.22681 4.51203 8.22681C4.512 8.22681 4.51198 8.22681 4.51196 8.22681C4.51193 8.22681 4.51191 8.22681 4.51188 8.22681C4.51186 8.22681 4.51183 8.22681 4.51181 8.22681C4.51179 8.22681 4.51176 8.22681 4.51174 8.22681C4.51171 8.22681 4.51169 8.22681 4.51167 8.22681C4.51164 8.22681 4.51162 8.22681 4.51159 8.22681C4.51157 8.22681 4.51155 8.22681 4.51152 8.22681C4.5115 8.22681 4.51147 8.22681 4.51145 8.22681C4.51143 8.22681 4.5114 8.22681 4.51138 8.22681C4.51135 8.22681 4.51133 8.22681 4.51131 8.22681C4.51128 8.22681 4.51126 8.22681 4.51123 8.22681C4.51121 8.22681 4.51118 8.22681 4.51116 8.22681C4.51114 8.22681 4.51111 8.22681 4.51109 8.22681C4.51106 8.22681 4.51104 8.22681 4.51102 8.22681C4.51099 8.22681 4.51097 8.22681 4.51094 8.22681C4.51092 8.22681 4.5109 8.22681 4.51087 8.22681C4.51085 8.22681 4.51082 8.22681 4.5108 8.22681C4.51077 8.22681 4.51075 8.22681 4.51073 8.22681C4.5107 8.22681 4.51068 8.22681 4.51065 8.22681C4.51063 8.22681 4.51061 8.22681 4.51058 8.22681C4.51056 8.22681 4.51053 8.22681 4.51051 8.22681C4.51049 8.22681 4.51046 8.22681 4.51044 8.22681C4.51041 8.22681 4.51039 8.22681 4.51036 8.22681C4.51034 8.22681 4.51032 8.22681 4.51029 8.22681C4.51027 8.22681 4.51024 8.22681 4.51022 8.22681C4.5102 8.22681 4.51017 8.22681 4.51015 8.22681C4.51012 8.22681 4.5101 8.22681 4.51008 8.22681C4.51005 8.22681 4.51003 8.22681 4.51 8.22681C4.50998 8.22681 4.50995 8.22681 4.50993 8.22681C4.50991 8.22681 4.50988 8.22681 4.50986 8.22681C4.50983 8.22681 4.50981 8.22681 4.50979 8.22681C4.50976 8.22681 4.50974 8.22681 4.50971 8.22681C4.50969 8.22681 4.50967 8.22681 4.50964 8.22681C4.50962 8.22681 4.50959 8.22681 4.50957 8.22681C4.50954 8.22681 4.50952 8.22681 4.5095 8.22681C4.50947 8.22681 4.50945 8.22681 4.50942 8.22681C4.5094 8.22681 4.50938 8.22681 4.50935 8.22681C4.50933 8.22681 4.5093 8.22681 4.50928 8.22681C4.50925 8.22681 4.50923 8.22681 4.50921 8.22681C4.50918 8.22681 4.50916 8.22681 4.50913 8.22681C4.50911 8.22681 4.50909 8.22681 4.50906 8.22681C4.50904 8.22681 4.50901 8.22681 4.50899 8.22681C4.50897 8.22681 4.50894 8.22681 4.50892 8.22681C4.50889 8.22681 4.50887 8.22681 4.50884 8.22681C4.50882 8.22681 4.5088 8.22681 4.50877 8.22681C4.50875 8.22681 4.50872 8.22681 4.5087 8.22681C4.50868 8.22681 4.50865 8.22681 4.50863 8.22681C4.5086 8.22681 4.50858 8.22681 4.50855 8.22681C4.50853 8.22681 4.50851 8.22681 4.50848 8.22681C4.50846 8.22681 4.50843 8.22681 4.50841 8.22681C4.50839 8.22681 4.50836 8.22681 4.50834 8.22681C4.50831 8.22681 4.50829 8.22681 4.50826 8.22681C4.50824 8.22681 4.50822 8.22681 4.50819 8.22681C4.50817 8.22681 4.50814 8.22681 4.50812 8.22681C4.5081 8.22681 4.50807 8.22681 4.50805 8.22681C4.50802 8.22681 4.508 8.22681 4.50797 8.22681C4.50795 8.22681 4.50793 8.22681 4.5079 8.22681C4.50788 8.22681 4.50785 8.22681 4.50783 8.22681C4.50781 8.22681 4.50778 8.22681 4.50776 8.22681C4.50773 8.22681 4.50771 8.22681 4.50768 8.22681C4.50766 8.22681 4.50764 8.22681 4.50761 8.22681C4.50759 8.22681 4.50756 8.22681 4.50754 8.22681C4.50751 8.22681 4.50749 8.22681 4.50747 8.22681C4.50744 8.22681 4.50742 8.22681 4.50739 8.22681C4.50737 8.22681 4.50735 8.22681 4.50732 8.22681C4.5073 8.22681 4.50727 8.22681 4.50725 8.22681C4.50722 8.22681 4.5072 8.22681 4.50718 8.22681C4.50715 8.22681 4.50713 8.22681 4.5071 8.22681C4.50708 8.22681 4.50706 8.22681 4.50703 8.22681C4.50701 8.22681 4.50698 8.22681 4.50696 8.22681C4.50693 8.22681 4.50691 8.22681 4.50689 8.22681C4.50686 8.22681 4.50684 8.22681 4.50681 8.22681C4.50679 8.22681 4.50677 8.22681 4.50674 8.22681C4.50672 8.22681 4.50669 8.22681 4.50667 8.22681C4.50664 8.22681 4.50662 8.22681 4.5066 8.22681C4.50657 8.22681 4.50655 8.22681 4.50652 8.22681C4.5065 8.22681 4.50647 8.22681 4.50645 8.22681C4.50643 8.22681 4.5064 8.22681 4.50638 8.22681C4.50635 8.22681 4.50633 8.22681 4.50631 8.22681C4.50628 8.22681 4.50626 8.22681 4.50623 8.22681C4.50621 8.22681 4.50618 8.22681 4.50616 8.22681C4.50614 8.22681 4.50611 8.22681 4.50609 8.22681C4.50606 8.22681 4.50604 8.22681 4.50601 8.22681C4.50599 8.22681 4.50597 8.22681 4.50594 8.22681C4.50592 8.22681 4.50589 8.22681 4.50587 8.22681C4.50585 8.22681 4.50582 8.22681 4.5058 8.22681C4.50577 8.22681 4.50575 8.22681 4.50572 8.22681C4.5057 8.22681 4.50568 8.22681 4.50565 8.22681C4.50563 8.22681 4.5056 8.22681 4.50558 8.22681C4.50555 8.22681 4.50553 8.22681 4.50551 8.22681C4.50548 8.22681 4.50546 8.22681 4.50543 8.22681C4.50541 8.22681 4.50539 8.22681 4.50536 8.22681C4.50534 8.22681 4.50531 8.22681 4.50529 8.22681C4.50526 8.22681 4.50524 8.22681 4.50522 8.22681C4.50519 8.22681 4.50517 8.22681 4.50514 8.22681C4.50512 8.22681 4.50509 8.22681 4.50507 8.22681C4.50505 8.22681 4.50502 8.22681 4.505 8.22681C4.50497 8.22681 4.50495 8.22681 4.50492 8.22681C4.5049 8.22681 4.50488 8.22681 4.50485 8.22681C4.50483 8.22681 4.5048 8.22681 4.50478 8.22681C4.50476 8.22681 4.50473 8.22681 4.50471 8.22681C4.50468 8.22681 4.50466 8.22681 4.50463 8.22681C4.50461 8.22681 4.50459 8.22681 4.50456 8.22681C4.50454 8.22681 4.50451 8.22681 4.50449 8.22681C4.50446 8.22681 4.50444 8.22681 4.50442 8.22681C4.50439 8.22681 4.50437 8.22681 4.50434 8.22681C4.50432 8.22681 4.50429 8.22681 4.50427 8.22681C4.50425 8.22681 4.50422 8.22681 4.5042 8.22681C4.50417 8.22681 4.50415 8.22681 4.50413 8.22681C4.5041 8.22681 4.50408 8.22681 4.50405 8.22681C4.50403 8.22681 4.504 8.22681 4.50398 8.22681C4.50396 8.22681 4.50393 8.22681 4.50391 8.22681C4.50388 8.22681 4.50386 8.22681 4.50383 8.22681C4.50381 8.22681 4.50379 8.22681 4.50376 8.22681C4.50374 8.22681 4.50371 8.22681 4.50369 8.22681C4.50366 8.22681 4.50364 8.22681 4.50362 8.22681C4.50359 8.22681 4.50357 8.22681 4.50354 8.22681C4.50352 8.22681 4.50349 8.22681 4.50347 8.22681C4.50345 8.22681 4.50342 8.22681 4.5034 8.22681C4.50337 8.22681 4.50335 8.22681 4.50333 8.22681C4.5033 8.22681 4.50328 8.22681 4.50325 8.22681C4.50323 8.22681 4.5032 8.22681 4.50318 8.22681C4.50316 8.22681 4.50313 8.22681 4.50311 8.22681C4.50308 8.22681 4.50306 8.22681 4.50303 8.22681C4.50301 8.22681 4.50299 8.22681 4.50296 8.22681C4.50294 8.22681 4.50291 8.22681 4.50289 8.22681C4.50286 8.22681 4.50284 8.22681 4.50282 8.22681C4.50279 8.22681 4.50277 8.22681 4.50274 8.22681C4.50272 8.22681 4.50269 8.22681 4.50267 8.22681C4.50265 8.22681 4.50262 8.22681 4.5026 8.22681C4.50257 8.22681 4.50255 8.22681 4.50252 8.22681C4.5025 8.22681 4.50248 8.22681 4.50245 8.22681C4.50243 8.22681 4.5024 8.22681 4.50238 8.22681C4.50235 8.22681 4.50233 8.22681 4.50231 8.22681C4.50228 8.22681 4.50226 8.22681 4.50223 8.22681C4.50221 8.22681 4.50218 8.22681 4.50216 8.22681C4.50214 8.22681 4.50211 8.22681 4.50209 8.22681C4.50206 8.22681 4.50204 8.22681 4.50202 8.22681C4.50199 8.22681 4.50197 8.22681 4.50194 8.22681C4.50192 8.22681 4.50189 8.22681 4.50187 8.22681C4.50185 8.22681 4.50182 8.22681 4.5018 8.22681C4.50177 8.22681 4.50175 8.22681 4.50172 8.22681C4.5017 8.22681 4.50168 8.22681 4.50165 8.22681C4.50163 8.22681 4.5016 8.22681 4.50158 8.22681C4.50155 8.22681 4.50153 8.22681 4.50151 8.22681C4.50148 8.22681 4.50146 8.22681 4.50143 8.22681C4.50141 8.22681 4.50138 8.22681 4.50136 8.22681C4.50134 8.22681 4.50131 8.22681 4.50129 8.22681C4.50126 8.22681 4.50124 8.22681 4.50121 8.22681C4.50119 8.22681 4.50117 8.22681 4.50114 8.22681C4.50112 8.22681 4.50109 8.22681 4.50107 8.22681C4.50104 8.22681 4.50102 8.22681 4.501 8.22681C4.50097 8.22681 4.50095 8.22681 4.50092 8.22681C4.5009 8.22681 4.50087 8.22681 4.50085 8.22681C4.50083 8.22681 4.5008 8.22681 4.50078 8.22681C4.50075 8.22681 4.50073 8.22681 4.5007 8.22681C4.50068 8.22681 4.50066 8.22681 4.50063 8.22681C4.50061 8.22681 4.50058 8.22681 4.50056 8.22681C4.50053 8.22681 4.50051 8.22681 4.50049 8.22681C4.50046 8.22681 4.50044 8.22681 4.50041 8.22681C4.50039 8.22681 4.50036 8.22681 4.50034 8.22681C4.50032 8.22681 4.50029 8.22681 4.50027 8.22681C4.50024 8.22681 4.50022 8.22681 4.50019 8.22681C4.50017 8.22681 4.50015 8.22681 4.50012 8.22681C4.5001 8.22681 4.50007 8.22681 4.50005 8.22681C4.50002 8.22681 4.5 8.22681 4.49998 8.22681C4.49995 8.22681 4.49993 8.22681 4.4999 8.22681C4.49988 8.22681 4.49985 8.22681 4.49983 8.22681C4.49981 8.22681 4.49978 8.22681 4.49976 8.22681C4.49973 8.22681 4.49971 8.22681 4.49968 8.22681C4.49966 8.22681 4.49964 8.22681 4.49961 8.22681C4.49959 8.22681 4.49956 8.22681 4.49954 8.22681C4.49951 8.22681 4.49949 8.22681 4.49947 8.22681C4.49944 8.22681 4.49942 8.22681 4.49939 8.22681C4.49937 8.22681 4.49934 8.22681 4.49932 8.22681C4.4993 8.22681 4.49927 8.22681 4.49925 8.22681C4.49922 8.22681 4.4992 8.22681 4.49918 8.22681C4.49915 8.22681 4.49913 8.22681 4.4991 8.22681C4.49908 8.22681 4.49905 8.22681 4.49903 8.22681C4.49901 8.22681 4.49898 8.22681 4.49896 8.22681C4.49893 8.22681 4.49891 8.22681 4.49888 8.22681C4.49886 8.22681 4.49883 8.22681 4.49881 8.22681C4.49879 8.22681 4.49876 8.22681 4.49874 8.22681C4.49871 8.22681 4.49869 8.22681 4.49866 8.22681C4.49864 8.22681 4.49862 8.22681 4.49859 8.22681C4.49857 8.22681 4.49854 8.22681 4.49852 8.22681C4.49849 8.22681 4.49847 8.22681 4.49845 8.22681C4.49842 8.22681 4.4984 8.22681 4.49837 8.22681C4.49835 8.22681 4.49832 8.22681 4.4983 8.22681C4.49828 8.22681 4.49825 8.22681 4.49823 8.22681C4.4982 8.22681 4.49818 8.22681 4.49815 8.22681C4.49813 8.22681 4.49811 8.22681 4.49808 8.22681C4.49806 8.22681 4.49803 8.22681 4.49801 8.22681C4.49799 8.22681 4.49796 8.22681 4.49794 8.22681C4.49791 8.22681 4.49789 8.22681 4.49786 8.22681C4.49784 8.22681 4.49781 8.22681 4.49779 8.22681C4.49777 8.22681 4.49774 8.22681 4.49772 8.22681C4.49769 8.22681 4.49767 8.22681 4.49764 8.22681C4.49762 8.22681 4.4976 8.22681 4.49757 8.22681C4.49755 8.22681 4.49752 8.22681 4.4975 8.22681C4.49747 8.22681 4.49745 8.22681 4.49743 8.22681C4.4974 8.22681 4.49738 8.22681 4.49735 8.22681C4.49733 8.22681 4.4973 8.22681 4.49728 8.22681C4.49726 8.22681 4.49723 8.22681 4.49721 8.22681C4.49718 8.22681 4.49716 8.22681 4.49713 8.22681C4.49711 8.22681 4.49709 8.22681 4.49706 8.22681C4.49704 8.22681 4.49701 8.22681 4.49699 8.22681C4.49696 8.22681 4.49694 8.22681 4.49692 8.22681C4.49689 8.22681 4.49687 8.22681 4.49684 8.22681C4.49682 8.22681 4.49679 8.22681 4.49677 8.22681C4.49675 8.22681 4.49672 8.22681 4.4967 8.22681C4.49667 8.22681 4.49665 8.22681 4.49662 8.22681C4.4966 8.22681 4.49658 8.22681 4.49655 8.22681C4.49653 8.22681 4.4965 8.22681 4.49648 8.22681C4.49645 8.22681 4.49643 8.22681 4.49641 8.22681C4.49638 8.22681 4.49636 8.22681 4.49633 8.22681C4.49631 8.22681 4.49628 8.22681 4.49626 8.22681C4.49624 8.22681 4.49621 8.22681 4.49619 8.22681C4.49616 8.22681 4.49614 8.22681 4.49611 8.22681C4.49609 8.22681 4.49607 8.22681 4.49604 8.22681C4.49602 8.22681 4.49599 8.22681 4.49597 8.22681C4.49594 8.22681 4.49592 8.22681 4.4959 8.22681C4.49587 8.22681 4.49585 8.22681 4.49582 8.22681C4.4958 8.22681 4.49577 8.22681 4.49575 8.22681C4.49573 8.22681 4.4957 8.22681 4.49568 8.22681C4.49565 8.22681 4.49563 8.22681 4.4956 8.22681C4.49558 8.22681 4.49556 8.22681 4.49553 8.22681C4.49551 8.22681 4.49548 8.22681 4.49546 8.22681C4.49543 8.22681 4.49541 8.22681 4.49539 8.22681C4.49536 8.22681 4.49534 8.22681 4.49531 8.22681C4.49529 8.22681 4.49526 8.22681 4.49524 8.22681C4.49522 8.22681 4.49519 8.22681 4.49517 8.22681C4.49514 8.22681 4.49512 8.22681 4.49509 8.22681C4.49507 8.22681 4.49505 8.22681 4.49502 8.22681C4.495 8.22681 4.49497 8.22681 4.49495 8.22681C4.49492 8.22681 4.4949 8.22681 4.49488 8.22681C4.49485 8.22681 4.49483 8.22681 4.4948 8.22681C4.49478 8.22681 4.49475 8.22681 4.49473 8.22681C4.49471 8.22681 4.49468 8.22681 4.49466 8.22681C4.49463 8.22681 4.49461 8.22681 4.49458 8.22681C4.49456 8.22681 4.49454 8.22681 4.49451 8.22681C4.49449 8.22681 4.49446 8.22681 4.49444 8.22681C4.49441 8.22681 4.49439 8.22681 4.49437 8.22681C4.49434 8.22681 4.49432 8.22681 4.49429 8.22681C4.49427 8.22681 4.49424 8.22681 4.49422 8.22681C4.4942 8.22681 4.49417 8.22681 4.49415 8.22681C4.49412 8.22681 4.4941 8.22681 4.49407 8.22681C4.49405 8.22681 4.49403 8.22681 4.494 8.22681C4.49398 8.22681 4.49395 8.22681 4.49393 8.22681C4.4939 8.22681 4.49388 8.22681 4.49386 8.22681C4.49383 8.22681 4.49381 8.22681 4.49378 8.22681C4.49376 8.22681 4.49373 8.22681 4.49371 8.22681C4.49369 8.22681 4.49366 8.22681 4.49364 8.22681C4.49361 8.22681 4.49359 8.22681 4.49356 8.22681C4.49354 8.22681 4.49352 8.22681 4.49349 8.22681C4.49347 8.22681 4.49344 8.22681 4.49342 8.22681C4.49339 8.22681 4.49337 8.22681 4.49335 8.22681C4.49332 8.22681 4.4933 8.22681 4.49327 8.22681C4.49325 8.22681 4.49322 8.22681 4.4932 8.22681C4.49318 8.22681 4.49315 8.22681 4.49313 8.22681C4.4931 8.22681 4.49308 8.22681 4.49305 8.22681C4.49303 8.22681 4.49301 8.22681 4.49298 8.22681C4.49296 8.22681 4.49293 8.22681 4.49291 8.22681C4.49288 8.22681 4.49286 8.22681 4.49284 8.22681C4.49281 8.22681 4.49279 8.22681 4.49276 8.22681C4.49274 8.22681 4.49271 8.22681 4.49269 8.22681C4.49267 8.22681 4.49264 8.22681 4.49262 8.22681C4.49259 8.22681 4.49257 8.22681 4.49254 8.22681C4.49252 8.22681 4.4925 8.22681 4.49247 8.22681C4.49245 8.22681 4.49242 8.22681 4.4924 8.22681C4.49237 8.22681 4.49235 8.22681 4.49233 8.22681C4.4923 8.22681 4.49228 8.22681 4.49225 8.22681C4.49223 8.22681 4.4922 8.22681 4.49218 8.22681C4.49216 8.22681 4.49213 8.22681 4.49211 8.22681C4.49208 8.22681 4.49206 8.22681 4.49203 8.22681C4.49201 8.22681 4.49199 8.22681 4.49196 8.22681C4.49194 8.22681 4.49191 8.22681 4.49189 8.22681C4.49187 8.22681 4.49184 8.22681 4.49182 8.22681C4.49179 8.22681 4.49177 8.22681 4.49174 8.22681C4.49172 8.22681 4.4917 8.22681 4.49167 8.22681C4.49165 8.22681 4.49162 8.22681 4.4916 8.22681C4.49157 8.22681 4.49155 8.22681 4.49153 8.22681C4.4915 8.22681 4.49148 8.22681 4.49145 8.22681C4.49143 8.22681 4.4914 8.22681 4.49138 8.22681C4.49136 8.22681 4.49133 8.22681 4.49131 8.22681C4.49128 8.22681 4.49126 8.22681 4.49123 8.22681C4.49121 8.22681 4.49119 8.22681 4.49116 8.22681C4.49114 8.22681 4.49111 8.22681 4.49109 8.22681C4.49106 8.22681 4.49104 8.22681 4.49102 8.22681C4.49099 8.22681 4.49097 8.22681 4.49094 8.22681C4.49092 8.22681 4.49089 8.22681 4.49087 8.22681C4.49085 8.22681 4.49082 8.22681 4.4908 8.22681C4.49077 8.22681 4.49075 8.22681 4.49072 8.22681C4.4907 8.22681 4.49068 8.22681 4.49065 8.22681C4.49063 8.22681 4.4906 8.22681 4.49058 8.22681C4.49055 8.22681 4.49053 8.22681 4.49051 8.22681C4.49048 8.22681 4.49046 8.22681 4.49043 8.22681C4.49041 8.22681 4.49038 8.22681 4.49036 8.22681C4.49034 8.22681 4.49031 8.22681 4.49029 8.22681C4.49026 8.22681 4.49024 8.22681 4.49022 8.22681C4.49019 8.22681 4.49017 8.22681 4.49014 8.22681C4.49012 8.22681 4.49009 8.22681 4.49007 8.22681C4.49005 8.22681 4.49002 8.22681 4.49 8.22681C4.48997 8.22681 4.48995 8.22681 4.48992 8.22681C4.4899 8.22681 4.48988 8.22681 4.48985 8.22681C4.48983 8.22681 4.4898 8.22681 4.48978 8.22681C4.48975 8.22681 4.48973 8.22681 4.48971 8.22681C4.48968 8.22681 4.48966 8.22681 4.48963 8.22681C4.48961 8.22681 4.48958 8.22681 4.48956 8.22681C4.48954 8.22681 4.48951 8.22681 4.48949 8.22681C4.48946 8.22681 4.48944 8.22681 4.48941 8.22681C4.48939 8.22681 4.48937 8.22681 4.48934 8.22681C4.48932 8.22681 4.48929 8.22681 4.48927 8.22681C4.48925 8.22681 4.48922 8.22681 4.4892 8.22681C4.48917 8.22681 4.48915 8.22681 4.48912 8.22681C4.4891 8.22681 4.48908 8.22681 4.48905 8.22681C4.48903 8.22681 4.489 8.22681 4.48898 8.22681C4.48895 8.22681 4.48893 8.22681 4.48891 8.22681C4.48888 8.22681 4.48886 8.22681 4.48883 8.22681C4.48881 8.22681 4.48878 8.22681 4.48876 8.22681C4.48874 8.22681 4.48871 8.22681 4.48869 8.22681C4.48866 8.22681 4.48864 8.22681 4.48861 8.22681C4.48859 8.22681 4.48857 8.22681 4.48854 8.22681C4.48852 8.22681 4.48849 8.22681 4.48847 8.22681C4.48845 8.22681 4.48842 8.22681 4.4884 8.22681C4.48837 8.22681 4.48835 8.22681 4.48832 8.22681C4.4883 8.22681 4.48828 8.22681 4.48825 8.22681C4.48823 8.22681 4.4882 8.22681 4.48818 8.22681C4.48815 8.22681 4.48813 8.22681 4.48811 8.22681C4.48808 8.22681 4.48806 8.22681 4.48803 8.22681C4.48801 8.22681 4.48798 8.22681 4.48796 8.22681C4.48794 8.22681 4.48791 8.22681 4.48789 8.22681C4.48786 8.22681 4.48784 8.22681 4.48782 8.22681C4.48779 8.22681 4.48777 8.22681 4.48774 8.22681C4.48772 8.22681 4.48769 8.22681 4.48767 8.22681C4.48765 8.22681 4.48762 8.22681 4.4876 8.22681C4.48757 8.22681 4.48755 8.22681 4.48752 8.22681C4.4875 8.22681 4.48748 8.22681 4.48745 8.22681C4.48743 8.22681 4.4874 8.22681 4.48738 8.22681C4.48736 8.22681 4.48733 8.22681 4.48731 8.22681C4.48728 8.22681 4.48726 8.22681 4.48723 8.22681C4.48721 8.22681 4.48719 8.22681 4.48716 8.22681C4.48714 8.22681 4.48711 8.22681 4.48709 8.22681C4.48706 8.22681 4.48704 8.22681 4.48702 8.22681C4.48699 8.22681 4.48697 8.22681 4.48694 8.22681C4.48692 8.22681 4.4869 8.22681 4.48687 8.22681C4.48685 8.22681 4.48682 8.22681 4.4868 8.22681C4.48677 8.22681 4.48675 8.22681 4.48673 8.22681C4.4867 8.22681 4.48668 8.22681 4.48665 8.22681C4.48663 8.22681 4.4866 8.22681 4.48658 8.22681C4.48656 8.22681 4.48653 8.22681 4.48651 8.22681C4.48648 8.22681 4.48646 8.22681 4.48644 8.22681C4.48641 8.22681 4.48639 8.22681 4.48636 8.22681C4.48634 8.22681 4.48631 8.22681 4.48629 8.22681C4.48627 8.22681 4.48624 8.22681 4.48622 8.22681C4.48619 8.22681 4.48617 8.22681 4.48614 8.22681C4.48612 8.22681 4.4861 8.22681 4.48607 8.22681C4.48605 8.22681 4.48602 8.22681 4.486 8.22681C4.48598 8.22681 4.48595 8.22681 4.48593 8.22681C4.4859 8.22681 4.48588 8.22681 4.48585 8.22681C4.48583 8.22681 4.48581 8.22681 4.48578 8.22681C4.48576 8.22681 4.48573 8.22681 4.48571 8.22681C4.48569 8.22681 4.48566 8.22681 4.48564 8.22681C4.48561 8.22681 4.48559 8.22681 4.48556 8.22681C4.48554 8.22681 4.48552 8.22681 4.48549 8.22681C4.48547 8.22681 4.48544 8.22681 4.48542 8.22681C4.4854 8.22681 4.48537 8.22681 4.48535 8.22681V10.7585ZM4.52242 10.7585L4.48202 13.2898C4.63367 13.2922 4.64417 13.3191 4.58001 13.2873C4.54878 13.2718 4.51291 13.2485 4.47891 13.2181C4.44525 13.1881 4.42566 13.1621 4.41772 13.15L6.53121 11.7563L8.64469 10.3626C7.67444 8.8913 6.14297 8.25236 4.56283 8.22713L4.52242 10.7585ZM6.53121 11.7563L4.33772 13.0204C4.29349 12.9436 4.261 12.861 4.24116 12.7751L6.70776 12.205L9.17437 11.6348C9.08174 11.2341 8.93027 10.849 8.7247 10.4923L6.53121 11.7563ZM6.70776 12.205L4.27437 12.9034C4.27845 12.9176 4.30595 13.0161 4.33436 13.1053L6.74646 12.3365L9.15856 11.5677C9.16109 11.5756 9.16145 11.5773 9.15817 11.566C9.15657 11.5605 9.15465 11.5538 9.1517 11.5434C9.14918 11.5346 9.14505 11.5201 9.14116 11.5065L6.70776 12.205ZM6.74646 12.3365L4.32812 13.0854C4.38372 13.2649 4.54175 13.7567 4.94088 14.2282C5.41708 14.7907 6.10521 15.1752 6.91119 15.2509L7.14783 12.7303L7.38446 10.2098C7.62452 10.2323 7.89716 10.3022 8.16978 10.4464C8.44172 10.5902 8.65168 10.7752 8.80542 10.9568C8.95319 11.1313 9.04056 11.2924 9.08877 11.3951C9.13634 11.4964 9.15977 11.5713 9.1648 11.5876L6.74646 12.3365ZM7.14783 12.7303L6.90821 15.2506C8.79832 15.4303 9.79382 13.9433 10.0487 12.9856L7.60213 12.3346L5.15561 11.6836C5.22299 11.4304 5.38747 11.057 5.76223 10.7299C6.16509 10.3783 6.74583 10.149 7.38744 10.21L7.14783 12.7303ZM7.60213 12.3346L10.0555 12.9591C10.1414 12.6219 10.1807 12.2746 10.1725 11.9269L7.64152 11.9868L5.11059 12.0467C5.1079 11.9333 5.12071 11.8201 5.14874 11.71L7.60213 12.3346ZM7.64152 11.9868L10.1728 11.9408C10.1535 10.8805 10.1317 9.84335 10.1079 8.85796L7.57702 8.91889L5.04611 8.97982C5.06957 9.95463 5.09119 10.9818 5.1103 12.0328L7.64152 11.9868ZM7.57702 8.91889L10.1079 8.8578C10.1018 8.60584 10.0911 8.35585 10.0812 8.13624L7.55212 8.24917L5.02299 8.3621C5.03278 8.58132 5.04141 8.78513 5.04611 8.97998L7.57702 8.91889ZM7.55212 8.24917L10.0814 8.14064C10.0633 7.71721 10.0496 7.3788 10.0569 7.06159L7.52587 7.00379L4.99488 6.94598C4.98319 7.45794 5.00591 7.96396 5.0228 8.3577L7.55212 8.24917ZM7.52587 7.00379L10.0569 7.06159C10.0766 6.19765 10.1283 5.31117 10.1816 4.40201L7.65431 4.25383L5.127 4.10564C5.07461 4.99916 5.01702 5.97633 4.99488 6.94599L7.52587 7.00379ZM7.65431 4.25383L10.1816 4.4015L10.19 4.25917L7.66263 4.1115L5.13529 3.96382L5.12697 4.10615L7.65431 4.25383ZM7.66263 4.1115L10.1899 4.25997C10.1899 4.26029 10.1897 4.26398 10.1891 4.27043C10.1886 4.27688 10.1876 4.28683 10.1861 4.29973C10.183 4.32483 10.1771 4.36603 10.1656 4.41902C10.1434 4.52174 10.0934 4.70013 9.97778 4.90645C9.85596 5.12383 9.67726 5.34276 9.43618 5.52242C9.19875 5.69935 8.96538 5.79018 8.78845 5.83392L8.18094 3.37624L7.57343 0.918569C6.72061 1.12938 5.9963 1.65409 5.56088 2.43099C5.1974 3.07955 5.15008 3.71207 5.13534 3.96302L7.66263 4.1115ZM8.18094 3.37624L6.64788 5.39093C6.50869 5.28501 6.38684 5.14527 6.3 4.98898C6.21769 4.84086 6.19429 4.72774 6.18885 4.69424L8.68774 4.28829L11.1866 3.88234C11.0373 2.96336 10.5982 2.03436 9.71401 1.36156L8.18094 3.37624ZM8.68774 4.28829L6.18892 4.69466C6.28883 5.30901 6.35268 5.85119 6.38785 6.35901L8.91345 6.18412L11.439 6.00922C11.3916 5.32452 11.3076 4.62646 11.1866 3.88193L8.68774 4.28829ZM8.91345 6.18412L6.38789 6.35954C6.44333 7.15767 6.48563 7.97423 6.52796 8.78989L9.05621 8.65867L11.5844 8.52746C11.5426 7.72023 11.4981 6.85872 11.439 6.00869L8.91345 6.18412ZM9.05621 8.65867L6.52793 8.78927C6.54917 9.2005 6.57107 9.61154 6.59358 10.0225L9.12144 9.88412L11.6493 9.74571C11.6271 9.33968 11.6054 8.93386 11.5845 8.52808L9.05621 8.65867ZM9.12144 9.88412L6.59376 10.0258C6.60402 10.2088 6.63978 10.8007 6.98387 11.4146C7.41973 12.1922 8.19849 12.7461 9.15415 12.8701L9.48002 10.3595L9.80588 7.84892C10.0764 7.88403 10.4041 7.9845 10.724 8.20237C11.0435 8.41991 11.2615 8.69062 11.4007 8.93896C11.5328 9.1747 11.5898 9.38143 11.6158 9.50371C11.6421 9.62717 11.6477 9.71741 11.6491 9.74246L9.12144 9.88412ZM9.48002 10.3595L9.15246 12.8699C10.1143 12.9954 10.9747 12.6493 11.5675 12.0671C12.0028 11.6395 12.2259 11.1281 12.2309 11.1179L9.95797 10.003L7.68503 8.88811C7.60405 9.0532 7.73048 8.73863 8.0195 8.45476C8.20112 8.27638 8.46833 8.07981 8.82698 7.95439C9.18897 7.8278 9.53165 7.81314 9.80757 7.84914L9.48002 10.3595ZM9.95797 10.003L12.2317 11.1162C12.2796 11.0185 12.324 10.923 12.356 10.8542L10.061 9.78533L7.76609 8.7165C7.73018 8.79361 7.70666 8.84393 7.68421 8.88978L9.95797 10.003ZM10.061 9.78533L12.3928 10.7713C12.4224 10.7012 12.4595 10.6342 12.5036 10.5713L10.4301 9.1187L8.35665 7.66613C8.10844 8.02043 7.89805 8.40021 7.72927 8.79941L10.061 9.78533ZM10.4301 9.1187L12.4436 10.6533C12.2011 10.9716 11.5194 11.5682 10.472 11.4006L10.8721 8.90077L11.2721 6.40094C9.91127 6.18315 8.90841 6.93883 8.41663 7.58407L10.4301 9.1187ZM10.8721 8.90077L10.4725 11.4007C9.41464 11.2316 8.96771 10.4412 8.84708 10.0922L11.2398 9.26508L13.6325 8.43793C13.3698 7.67808 12.6549 6.62194 11.2717 6.40086L10.8721 8.90077ZM11.2398 9.26508L8.80852 9.97088C8.80063 9.94371 8.79651 9.91628 8.7959 9.88926L11.3269 9.83219L13.8579 9.77512C13.8486 9.3641 13.786 8.95533 13.6711 8.55927L11.2398 9.26508ZM11.3269 9.83219L8.8008 9.99962C8.80465 10.0577 8.81027 10.1421 8.8182 10.2315L11.3399 10.0077L13.8617 9.78398C13.8593 9.75729 13.857 9.72429 13.853 9.66476L11.3269 9.83219ZM11.3399 10.0077L8.81304 10.1627C8.80873 10.0924 8.81017 10.0226 8.81709 9.95385L11.336 10.2071L13.855 10.4604C13.8752 10.2593 13.8793 10.056 13.8668 9.85278L11.3399 10.0077ZM11.336 10.2071L8.8148 9.9777C8.80047 10.1352 8.79529 10.2932 8.79918 10.4508L11.3301 10.3883L13.8609 10.3257C13.8618 10.3625 13.8606 10.3995 13.8573 10.4366L11.336 10.2071ZM11.3301 10.3883L8.79847 10.3704C8.7933 11.1033 9.07036 11.8089 9.57033 12.342L11.417 10.6102L13.2636 8.87833C13.6509 9.29132 13.8657 9.83806 13.8616 10.4061L11.3301 10.3883ZM11.417 10.6102L9.57151 12.3432C10.073 12.8773 10.7601 13.1972 11.4898 13.2385L11.633 10.7109L11.7761 8.18334C12.3414 8.21535 12.8737 8.46319 13.2624 8.87708L11.417 10.6102ZM11.633 10.7109L11.3001 13.2206C11.8026 13.2872 12.4759 13.2474 13.1356 12.8688C13.8189 12.4766 14.2248 11.871 14.418 11.291L12.0161 10.4908L9.61427 9.69065C9.75173 9.27808 10.0615 8.79519 10.615 8.4775C11.1448 8.1734 11.6545 8.15998 11.9658 8.20127L11.633 10.7109ZM12.0161 10.4908L14.4197 11.2858C14.4757 11.1164 14.5112 10.9614 14.5201 10.9243L12.057 10.3389L9.59398 9.75353C9.59097 9.76616 9.58959 9.77193 9.58854 9.77622C9.58763 9.77995 9.58794 9.7786 9.58911 9.77412C9.59122 9.76604 9.59894 9.73701 9.61253 9.69591L12.0161 10.4908ZM12.057 10.3389L14.5328 10.8677C14.5223 10.917 14.5085 10.9656 14.4916 11.0133L12.106 10.1658L9.72045 9.31827C9.66333 9.47906 9.61683 9.64335 9.58121 9.81012L12.057 10.3389ZM12.106 10.1658L14.4725 11.0652C14.5023 10.9868 14.5299 10.9107 14.5503 10.8547L12.1708 9.99013L9.79139 9.12553C9.76907 9.18698 9.75397 9.22839 9.73954 9.26635L12.106 10.1658ZM12.1708 9.99013L14.5738 10.787C14.5938 10.7266 14.619 10.6676 14.649 10.6106L12.4102 9.42875L10.1713 8.24689C10.0111 8.55034 9.87611 8.86685 9.76786 9.19328L12.1708 9.99013ZM12.4102 9.42875L14.6126 10.6772C14.534 10.8159 14.2295 11.2927 13.5608 11.5439C12.9212 11.7842 12.4123 11.6403 12.3215 11.6131L13.0499 9.18848L13.7783 6.7639C13.3778 6.64357 12.6244 6.48687 11.78 6.80413C10.9066 7.13229 10.4371 7.77574 10.2078 8.18027L12.4102 9.42875ZM13.0499 9.18848L12.3224 11.6134C12.1793 11.5704 11.9191 11.4588 11.6697 11.1981C11.4102 10.9268 11.2791 10.6156 11.2305 10.3621L13.717 9.88586L16.2034 9.40966C15.938 8.02352 14.9445 7.11375 13.7774 6.7636L13.0499 9.18848ZM13.717 9.88586L11.2197 10.3017C11.2338 10.3866 11.2421 10.4733 11.2442 10.5612L13.7751 10.4998L16.306 10.4385C16.2982 10.1148 16.2677 9.79121 16.2142 9.47004L13.717 9.88586ZM13.7751 10.4998L11.2461 10.6154C11.2484 10.6649 11.251 10.7209 11.2542 10.7793L13.7821 10.6416L16.31 10.504C16.308 10.468 16.3062 10.4295 16.3041 10.3842L13.7751 10.4998ZM13.7821 10.6416L11.2543 10.7807C11.2637 10.9519 11.2934 11.4841 11.5713 12.0493C11.9166 12.7516 12.5392 13.3055 13.3517 13.5472L14.0735 11.1206L14.7953 8.69404C15.0399 8.7668 15.3152 8.89945 15.5729 9.11937C15.8302 9.33889 16.0038 9.58886 16.1151 9.81542C16.2213 10.0313 16.2661 10.2152 16.2861 10.3207C16.306 10.4253 16.3096 10.4971 16.3099 10.5026L13.7821 10.6416ZM14.0735 11.1206L13.3474 13.5459C14.2262 13.809 15.1547 13.6587 15.8921 13.1189C16.4468 12.713 16.7308 12.1894 16.7868 12.092L14.591 10.8319L12.3952 9.57183C12.3462 9.65722 12.5102 9.31959 12.9017 9.03304C13.1368 8.86098 13.4538 8.70349 13.8405 8.63905C14.2233 8.57526 14.5559 8.62239 14.7995 8.69532L14.0735 11.1206ZM14.591 10.8319L16.7884 12.0891L16.8196 12.0345L14.6222 10.7773L12.4248 9.5201L12.3936 9.57468L14.591 10.8319ZM14.6222 10.7773L16.8513 11.9774C16.8809 11.9224 16.9146 11.8699 16.9517 11.8205L14.9289 10.2983L12.906 8.77605C12.7149 9.03002 12.5434 9.29793 12.3931 9.57725L14.6222 10.7773ZM14.9289 10.2983L16.9113 11.8728C16.8372 11.9661 16.6819 12.1319 16.4137 12.273C16.1371 12.4185 15.6997 12.5542 15.1683 12.4726L15.5525 9.97027L15.9366 7.46794C14.4474 7.23932 13.4084 8.14203 12.9464 8.72375L14.9289 10.2983ZM15.5525 9.97027L15.1713 12.4731C14.1159 12.3123 13.722 11.5238 13.648 11.3328L16.0087 10.4183L18.3694 9.50389C18.0944 8.79389 17.3764 7.6872 15.9336 7.46748L15.5525 9.97027ZM16.0087 10.4183L13.6656 11.377C13.7422 11.5643 13.788 11.7631 13.801 11.9658L16.3274 11.8039L18.8539 11.642C18.8059 10.8925 18.6364 10.1554 18.3518 9.45964L16.0087 10.4183ZM16.3274 11.8039L13.798 11.9091C13.8368 12.842 13.6666 13.8191 13.4405 14.8249L15.9105 15.3802L18.3804 15.9355C18.6265 14.8413 18.9246 13.3265 18.8569 11.6986L16.3274 11.8039ZM15.9105 15.3802L13.4453 14.8037C13.3624 15.1584 13.211 15.4937 13 15.7905L15.063 17.2578L17.1261 18.7251C17.7185 17.8922 18.1429 16.9518 18.3756 15.9567L15.9105 15.3802ZM15.063 17.2578L12.9857 15.8107C12.9335 15.8857 12.7816 16.0579 12.318 16.2051L13.0841 18.618L13.8501 21.031C15.1441 20.6202 16.3239 19.877 17.1404 18.7048L15.063 17.2578ZM13.0841 18.618L12.3166 16.2055C11.4896 16.4686 10.7084 16.3772 9.79007 15.7226L8.3207 17.7842L6.85133 19.8458C8.95646 21.3462 11.3807 21.8166 13.8515 21.0305L13.0841 18.618Z" fill="#A2561B" mask="url(#path-2-inside-1_9086_104484)"/>
<mask id="path-4-inside-2_9086_104484" fill="white">
<path d="M5.32674 2.64796C5.43798 2.68335 5.54942 2.71867 5.65999 2.75597L5.70154 2.76992L5.72161 2.70429C5.73242 2.70512 5.74331 2.70621 5.75411 2.70729C5.80906 2.7182 5.86597 2.71335 5.91828 2.69332L5.94185 2.68153C6.05244 2.62636 6.19012 2.55765 6.21604 2.45621C6.23698 2.3125 6.20331 2.16617 6.12173 2.04603C6.04325 1.95095 5.93603 1.88389 5.81618 1.85496C5.43559 1.7403 5.12285 1.65746 4.83191 1.59416C4.57511 1.53834 4.36569 1.63055 4.28568 1.8351C4.21423 2.01787 4.28009 2.26139 4.54437 2.37296C4.79918 2.48055 5.06736 2.56563 5.32674 2.64796Z"/>
</mask>
<path d="M5.32674 2.64796C5.43798 2.68335 5.54942 2.71867 5.65999 2.75597L5.70154 2.76992L5.72161 2.70429C5.73242 2.70512 5.74331 2.70621 5.75411 2.70729C5.80906 2.7182 5.86597 2.71335 5.91828 2.69332L5.94185 2.68153C6.05244 2.62636 6.19012 2.55765 6.21604 2.45621C6.23698 2.3125 6.20331 2.16617 6.12173 2.04603C6.04325 1.95095 5.93603 1.88389 5.81618 1.85496C5.43559 1.7403 5.12285 1.65746 4.83191 1.59416C4.57511 1.53834 4.36569 1.63055 4.28568 1.8351C4.21423 2.01787 4.28009 2.26139 4.54437 2.37296C4.79918 2.48055 5.06736 2.56563 5.32674 2.64796Z" fill="#ECF0F1"/>
<path d="M5.32674 2.64796L6.0943 0.235473L6.09265 0.234949L5.32674 2.64796ZM5.65999 2.75597L4.85069 5.15478L4.85415 5.15594L5.65999 2.75597ZM5.70154 2.76992L4.8957 5.16989L7.3616 5.99787L8.12246 3.51044L5.70154 2.76992ZM5.72161 2.70429L5.91669 0.180168L3.89408 0.0238543L3.30069 1.96377L5.72161 2.70429ZM5.75411 2.70729L6.24719 0.224124L6.12704 0.200265L6.00514 0.188118L5.75411 2.70729ZM5.91828 2.69332L6.8233 5.05768L6.93984 5.01307L7.05143 4.95722L5.91828 2.69332ZM5.94185 2.68153L4.81174 0.416117L4.80871 0.417633L5.94185 2.68153ZM6.21604 2.45621L8.66886 3.08304L8.70197 2.9535L8.72124 2.82119L6.21604 2.45621ZM6.12173 2.04603L8.21612 0.623804L8.14961 0.525852L8.07424 0.434536L6.12173 2.04603ZM5.81618 1.85496L5.08592 4.27899L5.15345 4.29934L5.222 4.31589L5.81618 1.85496ZM4.83191 1.59416L5.37014 -0.879609L5.36968 -0.879709L4.83191 1.59416ZM4.28568 1.8351L1.928 0.912831L1.92777 0.913423L4.28568 1.8351ZM4.54437 2.37296L5.52918 0.0407082L5.529 0.0406342L4.54437 2.37296ZM5.32674 2.64796L4.55918 5.06044C4.67676 5.09785 4.76526 5.12595 4.85069 5.15477L5.65999 2.75597L6.4693 0.357167C6.33358 0.31138 6.1992 0.268849 6.0943 0.235473L5.32674 2.64796ZM5.65999 2.75597L4.85415 5.15594L4.8957 5.16989L5.70154 2.76992L6.50738 0.369952L6.46584 0.356002L5.65999 2.75597ZM5.70154 2.76992L8.12246 3.51044L8.14254 3.4448L5.72161 2.70429L3.30069 1.96377L3.28062 2.0294L5.70154 2.76992ZM5.72161 2.70429L5.52654 5.22841C5.5133 5.22738 5.50372 5.22649 5.50032 5.22617C5.4985 5.226 5.49756 5.22591 5.49813 5.22596C5.49893 5.22604 5.4999 5.22614 5.50308 5.22646L5.75411 2.70729L6.00514 0.188118C5.99998 0.187604 5.96049 0.183554 5.91669 0.180168L5.72161 2.70429ZM5.75411 2.70729L5.26102 5.19045C5.78424 5.29435 6.32579 5.24812 6.8233 5.05768L5.91828 2.69332L5.01327 0.328968C5.40615 0.178585 5.83387 0.142051 6.24719 0.224124L5.75411 2.70729ZM5.91828 2.69332L7.05143 4.95722L7.075 4.94542L5.94185 2.68153L4.80871 0.417633L4.78514 0.42943L5.91828 2.69332ZM5.94185 2.68153L7.07197 4.94694C7.08986 4.93801 7.33861 4.82019 7.58162 4.64671C7.77771 4.50673 8.42968 4.01897 8.66886 3.08304L6.21604 2.45621L3.76323 1.82939C3.87444 1.39421 4.08353 1.0819 4.24655 0.889558C4.40578 0.701685 4.55798 0.584128 4.63977 0.525738C4.77981 0.425764 4.90443 0.369881 4.81174 0.416119L5.94185 2.68153ZM6.21604 2.45621L8.72124 2.82119C8.83346 2.05091 8.65293 1.26705 8.21612 0.623804L6.12173 2.04603L4.02733 3.46826C3.75369 3.0653 3.6405 2.57409 3.71085 2.09123L6.21604 2.45621ZM6.12173 2.04603L8.07424 0.434536C7.6469 -0.0832362 7.06305 -0.448386 6.41036 -0.605973L5.81618 1.85496L5.222 4.31589C4.80902 4.21617 4.43959 3.98513 4.16922 3.65753L6.12173 2.04603ZM5.81618 1.85496L6.54645 -0.569076C6.1218 -0.697006 5.74279 -0.798528 5.37014 -0.879609L4.83191 1.59416L4.29367 4.06793C4.50292 4.11346 4.74938 4.17761 5.08592 4.27899L5.81618 1.85496ZM4.83191 1.59416L5.36968 -0.879709C4.24466 -1.12427 2.57929 -0.752128 1.928 0.912831L4.28568 1.8351L6.64336 2.75736C6.44199 3.27214 6.03742 3.70263 5.5138 3.93349C5.02333 4.14973 4.57754 4.12964 4.29413 4.06803L4.83191 1.59416ZM4.28568 1.8351L1.92777 0.913423C1.36669 2.34883 2.0072 4.04985 3.55974 4.70528L4.54437 2.37296L5.529 0.0406342C5.9647 0.224571 6.3948 0.600307 6.62711 1.15961C6.84519 1.68463 6.839 2.25686 6.64359 2.75677L4.28568 1.8351ZM4.54437 2.37296L3.55957 4.70521C3.94019 4.86593 4.321 4.98484 4.56083 5.06097L5.32674 2.64796L6.09265 0.234949C5.81372 0.146416 5.65818 0.0951805 5.52918 0.0407082L4.54437 2.37296Z" fill="#A2561B" mask="url(#path-4-inside-2_9086_104484)"/>
<path d="M11.3623 2.30762L11.0332 2.84375C10.956 2.7963 10.8889 2.73512 10.8311 2.66602M11.3623 2.30762L10.8311 2.66602M11.3623 2.30762L11.4053 2.23633C11.3918 2.21856 11.378 2.20129 11.3633 2.18457M11.3623 2.30762L10.8311 2.66602M10.8311 2.66602C10.7923 2.61966 10.7567 2.56984 10.7285 2.51562L10.7295 2.5166L10.7285 2.51465M11.3633 2.18457L10.7285 2.51465M11.3633 2.18457C11.3578 2.17832 11.3523 2.17211 11.3467 2.16602H11.0195M11.3633 2.18457L10.8623 2.44531M10.7285 2.51465L10.8623 2.44531M10.7285 2.51465C10.7034 2.46602 10.684 2.41519 10.6689 2.36328V2.29492C10.7171 2.25078 10.7668 2.20847 10.8164 2.16602H11.0195M11.0195 2.16602L10.8623 2.44531M11.0195 2.16602L10.8623 2.44531M11.4473 2.2998C11.4979 2.38321 11.5402 2.48177 11.5625 2.59277C11.4381 2.69038 11.3104 2.78367 11.1807 2.87402L11.4473 2.2998ZM10.6553 2.31445C10.6549 2.31277 10.6537 2.31126 10.6533 2.30957L10.6553 2.30762V2.31445Z" fill="#A2561B" stroke="#A2561B" stroke-width="2.53165"/>
<path d="M12.0322 5.47754H12.0273M12.0322 5.47754L12.0293 5.45703M12.0322 5.47754L12.2129 5.46094C12.2603 5.45911 12.3073 5.45225 12.3545 5.44727M12.0322 5.47754L12.0293 5.45703M12.0273 5.47754L12.0293 5.45703M12.0273 5.47754H12.0225M12.0273 5.47754L12.0244 5.45605M12.0293 5.45703L12.0332 5.42383L12.4443 5.16602C12.4426 5.18948 12.442 5.21304 12.4385 5.23633C12.4303 5.2911 12.4171 5.33729 12.4053 5.375M12.4053 5.375L12.3545 5.44727M12.4053 5.375L12.3545 5.44727M12.4053 5.375C12.3965 5.40306 12.3875 5.42614 12.3799 5.44434C12.3714 5.44534 12.363 5.44637 12.3545 5.44727M12.0225 5.47754L12.0244 5.45605M12.0225 5.47754L12.0244 5.45605M12.0225 5.47754L11.959 5.4707L12.0215 5.43066L12.0244 5.45605M12.1816 5.05371L12.1992 5.29004M12.1816 5.05371L12.0771 5.06641L12.0381 5.38477L12.1992 5.29004M12.1816 5.05371L12.1924 5.19922M12.1816 5.05371L12.1963 5.05176M12.1992 5.29004L12.4463 5.14551C12.4484 5.10416 12.4476 5.06281 12.4443 5.02148L12.1963 5.05176M12.1992 5.29004L12.1924 5.19922M12.1924 5.19922L12.2021 5.2002M12.1924 5.19922L12.2021 5.2002M12.2021 5.2002L12.1963 5.05176M12.2021 5.2002L12.1963 5.05176M12.1484 4.6123L12.1504 4.64844M12.1484 4.6123C12.1432 4.61207 12.138 4.61251 12.1328 4.6123L12.0781 5.06348L12.1963 5.0498M12.1484 4.6123L12.1504 4.64844M12.1484 4.6123C12.1588 4.61278 12.1692 4.61267 12.1797 4.61328M12.1504 4.64844L12.1816 4.67578M12.1504 4.64844L12.1816 4.67578M12.1816 4.67578L12.1797 4.61328M12.1816 4.67578L12.1797 4.61328M12.1797 4.61328C12.2275 4.61609 12.2759 4.62123 12.3252 4.62695C12.3734 4.71412 12.408 4.80724 12.4277 4.90332M12.4277 4.90332L12.1885 4.83203M12.4277 4.90332C12.4357 4.9421 12.4412 4.98118 12.4443 5.02051L12.1963 5.0498M12.4277 4.90332L12.1885 4.83203M12.1885 4.83203L12.1963 5.0498M12.1885 4.83203L12.1963 5.0498M11.9785 5.07812L12.0176 5.39746L11.9033 5.46387L11.8506 5.45898C11.8427 5.45818 11.835 5.45686 11.8271 5.45605C11.7704 5.34813 11.7325 5.23138 11.7178 5.11035L11.9785 5.07812ZM11.9219 4.61328L11.9775 5.0752L11.7178 5.10645C11.7017 4.97022 11.7139 4.83277 11.7529 4.70215C11.7608 4.67664 11.7697 4.65148 11.7803 4.62695C11.8268 4.62091 11.8739 4.61603 11.9219 4.61328Z" fill="#A2561B" stroke="#A2561B" stroke-width="2.53165"/>
<path d="M3.75385 4.91203C3.73956 5.00956 3.89419 5.15179 3.98866 5.17588C4.13978 5.20984 4.29338 5.23156 4.44799 5.24085C4.51646 5.247 4.58743 5.25323 4.66153 5.26162L4.66616 5.26213L4.67082 5.26162C4.72249 5.25605 4.77752 5.25207 4.83435 5.24799C4.99489 5.24155 5.15429 5.21861 5.31013 5.17954C5.37158 5.14936 5.42401 5.10352 5.46211 5.04664C5.50024 4.98976 5.5227 4.92384 5.52723 4.85552C5.52108 4.74818 5.37395 4.56923 5.26562 4.56623C4.84141 4.55485 4.41687 4.56951 3.99445 4.6101C3.88653 4.62024 3.76997 4.80286 3.75385 4.91203Z" fill="#A2561B"/>
<path d="M7.83921 1.22798C7.87718 1.50996 8.01618 1.67089 8.2214 1.67089H8.22971C8.45236 1.66641 8.60771 1.47798 8.60755 1.21261C8.60251 0.915087 8.56671 0.618879 8.50078 0.328711C8.48026 0.231008 8.31609 0.125 8.21831 0.125H8.21583C8.15575 0.133486 8.09875 0.156955 8.05012 0.193254C8.0015 0.229552 7.9628 0.277511 7.93759 0.332701C7.89336 0.475597 7.86149 0.62202 7.8423 0.770367C7.83449 0.819384 7.82723 0.865745 7.81933 0.908116L7.81836 0.913436V0.918749C7.82144 0.966021 7.82351 1.00715 7.82533 1.04403C7.82874 1.1154 7.83157 1.17149 7.83921 1.22798Z" fill="#A2561B"/>
</g>
</svg>
