<svg width="20" height="20" viewBox="0 0 20 20" fill="none" xmlns="http://www.w3.org/2000/svg">
<path d="M16.0834 6.60023V10.8919C16.0834 13.4586 14.6167 14.5586 12.4167 14.5586H5.09171C4.71671 14.5586 4.35838 14.5253 4.02504 14.4503C3.81671 14.4169 3.61672 14.3586 3.43339 14.2919C2.18339 13.8253 1.42505 12.7419 1.42505 10.8919V6.60023C1.42505 4.03356 2.89171 2.93359 5.09171 2.93359H12.4167C14.2834 2.93359 15.625 3.72526 15.9834 5.53359C16.0417 5.86692 16.0834 6.20856 16.0834 6.60023Z" stroke="#28A745" stroke-width="1.5" stroke-miterlimit="10" stroke-linecap="round" stroke-linejoin="round"/>
<path d="M18.5842 9.09984V13.3915C18.5842 15.9582 17.1176 17.0582 14.9176 17.0582H7.59254C6.97588 17.0582 6.41755 16.9749 5.93422 16.7915C4.94255 16.4249 4.26755 15.6665 4.02588 14.4499C4.35921 14.5249 4.71754 14.5582 5.09254 14.5582H12.4176C14.6176 14.5582 16.0842 13.4582 16.0842 10.8915V6.59984C16.0842 6.20818 16.0509 5.8582 15.9842 5.5332C17.5676 5.86654 18.5842 6.98318 18.5842 9.09984Z" stroke="#28A745" stroke-width="1.5" stroke-miterlimit="10" stroke-linecap="round" stroke-linejoin="round"/>
<path d="M8.74884 10.9498C9.96387 10.9498 10.9489 9.96484 10.9489 8.74982C10.9489 7.53479 9.96387 6.5498 8.74884 6.5498C7.53381 6.5498 6.54883 7.53479 6.54883 8.74982C6.54883 9.96484 7.53381 10.9498 8.74884 10.9498Z" stroke="#28A745" stroke-width="1.5" stroke-miterlimit="10" stroke-linecap="round" stroke-linejoin="round"/>
<path d="M3.9834 6.91699V10.5837" stroke="#28A745" stroke-width="1.5" stroke-miterlimit="10" stroke-linecap="round" stroke-linejoin="round"/>
<path d="M13.5181 6.91699V10.5837" stroke="#28A745" stroke-width="1.5" stroke-miterlimit="10" stroke-linecap="round" stroke-linejoin="round"/>
</svg>
