<svg width="20" height="20" viewBox="0 0 20 20" fill="none" xmlns="http://www.w3.org/2000/svg">
<path d="M4.16667 8.33203C3.25 8.33203 2.5 9.08203 2.5 9.9987C2.5 10.9154 3.25 11.6654 4.16667 11.6654C5.08333 11.6654 5.83333 10.9154 5.83333 9.9987C5.83333 9.08203 5.08333 8.33203 4.16667 8.33203Z" stroke="#999B9D" stroke-width="1.5"/>
<path d="M15.8332 8.33203C14.9165 8.33203 14.1665 9.08203 14.1665 9.9987C14.1665 10.9154 14.9165 11.6654 15.8332 11.6654C16.7498 11.6654 17.4998 10.9154 17.4998 9.9987C17.4998 9.08203 16.7498 8.33203 15.8332 8.33203Z" stroke="#999B9D" stroke-width="1.5"/>
<path d="M10.0002 8.33203C9.0835 8.33203 8.3335 9.08203 8.3335 9.9987C8.3335 10.9154 9.0835 11.6654 10.0002 11.6654C10.9168 11.6654 11.6668 10.9154 11.6668 9.9987C11.6668 9.08203 10.9168 8.33203 10.0002 8.33203Z" stroke="#999B9D" stroke-width="1.5"/>
</svg>
