<svg width="20" height="20" viewBox="0 0 20 20" fill="none" xmlns="http://www.w3.org/2000/svg">
<path d="M6.2334 15.2881L8.81673 17.2881C9.15006 17.6215 9.90006 17.7881 10.4001 17.7881H13.5667C14.5667 17.7881 15.6501 17.0381 15.9001 16.0381L17.9001 9.95481C18.3167 8.78814 17.5667 7.78814 16.3167 7.78814H12.9834C12.4834 7.78814 12.0667 7.37147 12.1501 6.78814L12.5667 4.12147C12.7334 3.37147 12.2334 2.53814 11.4834 2.28814C10.8167 2.03814 9.9834 2.37147 9.65006 2.87147L6.2334 7.95481" stroke="#D68C9F" stroke-width="1.5" stroke-miterlimit="10"/>
<path d="M1.9834 15.2891V7.1224C1.9834 5.95573 2.4834 5.53906 3.65007 5.53906H4.4834C5.65006 5.53906 6.15007 5.95573 6.15007 7.1224V15.2891C6.15007 16.4557 5.65006 16.8724 4.4834 16.8724H3.65007C2.4834 16.8724 1.9834 16.4557 1.9834 15.2891Z" stroke="#D68C9F" stroke-width="1.5" stroke-linecap="round" stroke-linejoin="round"/>
</svg>
