<svg width="100" height="100" viewBox="0 0 100 100" fill="none" xmlns="http://www.w3.org/2000/svg">
<path d="M77.8333 6.16699H22.1667C17.9453 6.16699 13.8968 7.84392 10.9119 10.8289C7.92693 13.8138 6.25 17.8623 6.25 22.0837V61.8337C6.25 66.055 7.92693 70.1035 10.9119 73.0884C13.8968 76.0734 17.9453 77.7503 22.1667 77.7503H38.0833L50 89.667L61.9167 77.7503H77.8333C82.0547 77.7503 86.1032 76.0734 89.0881 73.0884C92.0731 70.1035 93.75 66.055 93.75 61.8337V22.0837C93.75 17.8623 92.0731 13.8138 89.0881 10.8289C86.1032 7.84392 82.0547 6.16699 77.8333 6.16699Z" stroke="#013B4D" stroke-width="8.19708" stroke-miterlimit="10"/>
<path d="M49.9993 49.9997V45.2497C49.9977 44.2045 50.203 43.1693 50.6035 42.2038C51.004 41.2384 51.5917 40.3618 52.3327 39.6247L55.6243 36.333C57.1133 34.8389 57.9519 32.8173 57.9577 30.708V29.9997C57.9467 27.8962 57.1033 25.8827 55.6121 24.3992C54.1208 22.9157 52.1028 22.083 49.9993 22.083C47.8959 22.083 45.8779 22.9157 44.3866 24.3992C42.8954 25.8827 42.052 27.8962 42.041 29.9997" stroke="#013B4D" stroke-width="8.19708" stroke-miterlimit="10"/>
<path d="M46.041 57.875H53.9577" stroke="#013B4D" stroke-width="8.19708" stroke-miterlimit="10"/>
</svg>
