<svg width="100" height="101" viewBox="0 0 100 101" fill="none" xmlns="http://www.w3.org/2000/svg">
<path d="M77.8333 6.66699H22.1667C17.9453 6.66699 13.8968 8.34392 10.9119 11.3289C7.92693 14.3138 6.25 18.3623 6.25 22.5837V62.3337C6.25 66.555 7.92693 70.6035 10.9119 73.5884C13.8968 76.5734 17.9453 78.2503 22.1667 78.2503H38.0833L50 90.167L61.9167 78.2503H77.8333C82.0547 78.2503 86.1032 76.5734 89.0881 73.5884C92.0731 70.6035 93.75 66.555 93.75 62.3337V22.5837C93.75 18.3623 92.0731 14.3138 89.0881 11.3289C86.1032 8.34392 82.0547 6.66699 77.8333 6.66699Z" stroke="#D4A437" stroke-width="8.19708" stroke-miterlimit="10"/>
<path d="M49.9993 50.4997V45.7497C49.9977 44.7045 50.203 43.6693 50.6035 42.7038C51.004 41.7384 51.5917 40.8618 52.3327 40.1247L55.6243 36.833C57.1133 35.3389 57.9519 33.3173 57.9577 31.208V30.4997C57.9467 28.3962 57.1033 26.3827 55.6121 24.8992C54.1208 23.4157 52.1028 22.583 49.9993 22.583C47.8959 22.583 45.8779 23.4157 44.3866 24.8992C42.8954 26.3827 42.052 28.3962 42.041 30.4997" stroke="#D4A437" stroke-width="8.19708" stroke-miterlimit="10"/>
<path d="M46.041 58.375H53.9577" stroke="#D4A437" stroke-width="8.19708" stroke-miterlimit="10"/>
</svg>
