<svg width="28" height="31" viewBox="0 0 28 31" fill="none" xmlns="http://www.w3.org/2000/svg">
<path d="M21.2525 14.8473C21.2525 18.3401 19.4985 21.4152 16.8379 23.2089C15.4144 24.1694 13.7309 24.7636 11.9174 24.8547C11.7504 24.8635 11.5834 24.8684 11.4149 24.8684C10.4098 24.8684 9.43932 24.7151 8.52581 24.4295C4.50124 23.1727 1.5752 19.358 1.5752 14.8473C1.5752 10.3023 4.54524 6.46509 8.61731 5.23762C9.50483 4.9692 10.4433 4.82617 11.4149 4.82617C11.5834 4.82617 11.7504 4.83156 11.9174 4.83989C13.7309 4.93099 15.4144 5.52514 16.8379 6.48566C19.4985 8.27936 21.2525 11.3544 21.2525 14.8473Z" fill="url(#paint0_linear_1299_81106)"/>
<path d="M16.8383 3.60794C15.9472 3.18621 14.9967 2.87616 14.0017 2.69542C13.3252 2.57149 12.6292 2.50586 11.9177 2.50586C5.47157 2.50586 0.21848 7.81887 0.00797665 14.4534C0.00247656 14.591 0.000976562 14.7306 0.000976562 14.8702C0.000976562 15.3057 0.0219771 15.7377 0.0659778 16.1614C0.107978 16.5865 0.17148 17.0048 0.255981 17.4148C0.415984 18.2186 0.654988 18.9955 0.958993 19.7336C1.177 20.2621 1.43 20.7701 1.71301 21.2574C1.94301 21.6517 2.19301 22.0323 2.46352 22.3953C4.64105 25.3376 8.06611 27.2346 11.9182 27.2346C12.6297 27.2346 13.3257 27.169 14.0022 27.0451C14.9967 26.8643 15.9477 26.5543 16.8388 26.1325C20.9643 24.1894 23.8324 19.8771 23.8324 14.8707C23.8324 9.86434 20.9643 5.55201 16.8383 3.60794ZM2.83852 15.05C2.83852 15.9003 2.94203 16.7266 3.13753 17.5172C3.40803 18.6173 3.85654 19.6503 4.45055 20.5834C4.47505 20.6231 4.49955 20.6608 4.52605 20.6985C4.76706 21.0688 5.03206 21.4215 5.32057 21.7575C6.34358 22.961 7.6366 23.9352 9.11113 24.5911C8.91262 24.5446 8.71912 24.4897 8.52612 24.4295C6.98659 23.9475 5.60707 23.0937 4.49305 21.9676C4.16605 21.639 3.86204 21.2858 3.58454 20.9141C3.44753 20.7333 3.31753 20.5472 3.19453 20.3562C2.62852 19.4818 2.19301 18.5105 1.91701 17.4741C1.69551 16.6355 1.576 15.7558 1.576 14.8467C1.576 10.3017 4.54605 6.46454 8.61812 5.23706C9.43163 4.99069 10.2896 4.84962 11.1767 4.83101C6.40458 5.88068 2.83852 10.0573 2.83852 15.05Z" fill="#D4A437" fill-opacity="0.4"/>
<path d="M9.11082 24.5936C8.91232 24.5471 8.71881 24.4922 8.52581 24.4319C4.50124 23.1751 1.5752 19.3604 1.5752 14.8497C1.5752 10.3047 4.54525 6.46752 8.61731 5.24004C9.43083 4.99366 10.2883 4.8526 11.1759 4.83398C6.40428 5.88415 2.83872 10.0608 2.83872 15.0535C2.83872 19.2928 5.41126 22.9458 9.11082 24.5936Z" fill="#013B4D"/>
<path d="M27.9998 14.8707C27.9998 18.8132 26.2213 22.3252 23.4498 24.5891C22.1387 25.6599 20.6062 26.4519 18.9352 26.8771C18.2567 27.0509 17.5537 27.1646 16.8351 27.2111C16.5856 27.2268 16.3361 27.2351 16.0831 27.2351H11.9141C12.6256 27.2351 13.3216 27.1695 13.9981 27.0455C14.9926 26.8648 15.9436 26.5548 16.8346 26.133C17.3022 25.9126 17.7537 25.6628 18.1862 25.3841C19.4867 24.5475 20.6202 23.4577 21.5237 22.1802C22.9737 20.1333 23.8293 17.6059 23.8293 14.8702C23.8293 9.86385 20.9612 5.55152 16.8346 3.60794C15.9436 3.18621 14.9931 2.87616 13.9981 2.69542C13.3216 2.57149 12.6256 2.50586 11.9141 2.50586L15.4251 2.52496L16.8346 2.53182C23.0667 2.93347 27.9998 8.30477 27.9998 14.8707Z" fill="#013B4D"/>
<path d="M26.889 14.8702C26.889 21.4362 21.9559 26.8075 15.7243 27.2106C15.4748 27.2263 15.2253 27.2346 14.9723 27.2346H14.3553C14.6083 27.2346 14.8578 27.2258 15.1058 27.2106C21.3394 26.808 26.2725 21.4367 26.2725 14.8702C26.2725 8.30379 21.3394 2.93298 15.1058 2.53182L13.6963 2.52496L11.1182 2.51125C11.0147 2.50782 10.9092 2.50586 10.8037 2.50586L14.3148 2.52496L15.7243 2.53182C21.9559 2.93298 26.889 8.30428 26.889 14.8702Z" fill="#013B4D"/>
<path d="M16.8421 2.53236L15.4326 2.52536C15.6506 2.51286 15.8701 2.50586 16.0901 2.50586C16.3431 2.50586 16.5926 2.51486 16.8421 2.53236Z" fill="url(#paint1_linear_1299_81106)"/>
<path d="M16.8419 27.2109V27.2354H16.0898C16.3428 27.2354 16.5924 27.2269 16.8419 27.2109Z" fill="url(#paint2_linear_1299_81106)"/>
<path d="M14.8896 27.2326L15.3107 28.6393L15.9462 29.8849C15.9462 29.8849 15.6392 30.9993 16.4622 30.9993C17.2852 30.9993 17.5522 30.4095 17.1507 29.8521V28.1804L16.8382 26.8691L14.8896 27.2326Z" fill="url(#paint3_linear_1299_81106)"/>
<path d="M3.09674 23.1855L4.33176 24.4071L2.86273 25.3961C2.86273 25.3961 2.62873 26.2155 1.75871 25.6253C0.8887 25.0356 1.59121 24.5134 1.99272 24.512L3.09674 23.1855Z" fill="url(#paint4_linear_1299_81106)"/>
<path d="M18.1836 3.63038L19.1321 1.75391L19.5136 1.94101L18.6471 3.63038H18.1836Z" fill="url(#paint5_linear_1299_81106)"/>
<path d="M17.8332 1.20102L20.2582 2.25804C20.2582 2.25804 21.2568 2.00187 21.2568 1.08396L18.4147 0C18.4147 0 17.9567 0.0925745 17.8332 0.524591C17.7097 0.956117 17.8332 1.20102 17.8332 1.20102Z" fill="url(#paint6_linear_1299_81106)"/>
<path d="M21.2566 14.8463C21.2566 18.3392 19.5026 21.4142 16.842 23.2079C15.4185 24.1685 13.735 24.7626 11.9214 24.8537C11.7544 24.8625 11.5874 24.8674 11.4189 24.8674C10.6244 24.8674 9.85289 24.7729 9.11488 24.5902C5.41532 22.9424 2.84277 19.2894 2.84277 15.0491C2.84277 10.0564 6.40833 5.87977 11.1799 4.82961C11.2589 4.82618 11.3399 4.82422 11.4189 4.82422C11.5874 4.82422 11.7544 4.82961 11.9214 4.83793C13.735 4.92904 15.4185 5.52318 16.842 6.48371C19.5026 8.27839 21.2566 11.3534 21.2566 14.8463Z" fill="url(#paint7_linear_1299_81106)"/>
<path d="M17.3408 3.27758C17.3408 3.27758 18.8388 3.81588 19.4729 4.29051L19.6384 4.1372C19.6384 4.1372 18.2783 3.41766 17.5908 3.20312L17.3408 3.27758Z" fill="url(#paint8_linear_1299_81106)"/>
<path d="M12.5865 19.8955C12.5265 19.8955 12.467 19.8945 12.4075 19.892C12.359 19.89 12.3215 19.8494 12.323 19.8013C12.325 19.7532 12.368 19.714 12.4145 19.7175C12.4715 19.7195 12.529 19.721 12.5865 19.721C12.635 19.721 12.6745 19.7601 12.6745 19.8082C12.6745 19.8563 12.635 19.8955 12.5865 19.8955ZM13.459 19.8102C13.418 19.8102 13.3815 19.7815 13.373 19.7403C13.3635 19.6932 13.3945 19.6471 13.442 19.6377C13.4985 19.6268 13.5545 19.6144 13.61 19.601C13.6575 19.5896 13.7045 19.6183 13.716 19.6649C13.7275 19.7115 13.6985 19.7587 13.6515 19.7701C13.5935 19.7839 13.535 19.7968 13.4765 19.8082C13.4705 19.8097 13.465 19.8102 13.459 19.8102ZM11.5425 19.772C11.5355 19.772 11.5285 19.771 11.522 19.7696C11.4634 19.7557 11.4054 19.7403 11.3479 19.7239C11.3014 19.7106 11.2744 19.6625 11.2879 19.6164C11.3009 19.5702 11.3494 19.5435 11.3964 19.5569C11.4514 19.5727 11.5075 19.5871 11.5635 19.6005C11.6105 19.6119 11.6395 19.659 11.6285 19.7056C11.618 19.7453 11.582 19.772 11.5425 19.772ZM14.4585 19.486C14.4255 19.486 14.3935 19.4671 14.3785 19.4354C14.358 19.3918 14.377 19.3397 14.421 19.3199C14.473 19.2961 14.5245 19.2708 14.5755 19.245C14.6185 19.2227 14.672 19.24 14.694 19.2827C14.716 19.3253 14.699 19.3779 14.656 19.4002C14.603 19.427 14.5495 19.4532 14.495 19.478C14.4835 19.4835 14.471 19.486 14.4585 19.486ZM10.5564 19.4076C10.5429 19.4076 10.5294 19.4046 10.5164 19.3982C10.4634 19.3709 10.4104 19.3432 10.3584 19.3139C10.3164 19.2901 10.3014 19.2371 10.3249 19.1949C10.3489 19.1533 10.4024 19.1384 10.4449 19.1617C10.4949 19.19 10.5454 19.2167 10.5964 19.243C10.6394 19.2648 10.6564 19.3174 10.6344 19.3605C10.6189 19.3908 10.5879 19.4076 10.5564 19.4076ZM15.3545 18.9401C15.3285 18.9401 15.3025 18.9287 15.2855 18.9068C15.2555 18.8692 15.262 18.8141 15.3005 18.7844C15.3455 18.7492 15.39 18.713 15.434 18.6763C15.471 18.6451 15.5265 18.6495 15.558 18.6862C15.5895 18.7229 15.585 18.7779 15.548 18.8092C15.5025 18.8474 15.4565 18.885 15.4095 18.9217C15.393 18.9341 15.3735 18.9401 15.3545 18.9401ZM9.68242 18.827C9.66242 18.827 9.64192 18.8201 9.62542 18.8062C9.57992 18.768 9.53542 18.7289 9.49142 18.6887C9.45542 18.656 9.45342 18.6009 9.48592 18.5657C9.51892 18.5305 9.57442 18.5281 9.60992 18.5603C9.65242 18.599 9.69542 18.6366 9.73892 18.6733C9.77592 18.7046 9.78042 18.7596 9.74892 18.7963C9.73192 18.8166 9.70692 18.827 9.68242 18.827ZM16.1035 18.2078C16.084 18.2078 16.0645 18.2013 16.0485 18.1884C16.0105 18.1582 16.005 18.1031 16.0355 18.066C16.0715 18.0213 16.107 17.9767 16.142 17.9306C16.171 17.8919 16.2265 17.8845 16.265 17.9132C16.304 17.942 16.3115 17.997 16.2825 18.0352C16.2465 18.0828 16.21 18.1294 16.172 18.175C16.1545 18.1964 16.1295 18.2078 16.1035 18.2078ZM8.96191 18.0669C8.93491 18.0669 8.90891 18.055 8.89141 18.0322C8.85591 17.9851 8.8209 17.9375 8.7869 17.889C8.7594 17.8493 8.7689 17.7952 8.8089 17.7675C8.84891 17.7397 8.90341 17.7496 8.93141 17.7893C8.96441 17.8364 8.99791 17.8825 9.03241 17.9276C9.06141 17.9663 9.05391 18.0208 9.01491 18.0496C8.99841 18.0615 8.98041 18.0669 8.96191 18.0669ZM16.673 17.3297C16.66 17.3297 16.6465 17.3267 16.634 17.3203C16.5905 17.2989 16.573 17.2464 16.5945 17.2032C16.62 17.1522 16.645 17.1006 16.6685 17.0486C16.6885 17.0044 16.7405 16.9851 16.785 17.0049C16.8295 17.0248 16.849 17.0763 16.829 17.1204C16.8045 17.1745 16.7785 17.228 16.752 17.2811C16.7365 17.3118 16.7055 17.3297 16.673 17.3297ZM8.4264 17.1695C8.3929 17.1695 8.3609 17.1507 8.3464 17.1185C8.3219 17.0649 8.2984 17.0104 8.2754 16.9558C8.2569 16.9112 8.2784 16.8606 8.3234 16.8423C8.3684 16.8235 8.4194 16.8453 8.4379 16.8899C8.4599 16.9429 8.4829 16.995 8.5064 17.0471C8.5264 17.0907 8.5069 17.1428 8.4624 17.1626C8.4509 17.1671 8.4384 17.1695 8.4264 17.1695ZM17.038 16.3505C17.031 16.3505 17.0235 16.3495 17.0165 16.348C16.9695 16.3361 16.941 16.289 16.9525 16.2424C16.9665 16.1873 16.9795 16.1318 16.9915 16.0758C17.0015 16.0287 17.048 15.9979 17.096 16.0088C17.1435 16.0188 17.1735 16.0654 17.1635 16.1125C17.151 16.1705 17.1375 16.228 17.123 16.285C17.113 16.3242 17.077 16.3505 17.038 16.3505ZM8.09739 16.1784C8.05689 16.1784 8.02039 16.1506 8.01139 16.1095C7.99889 16.052 7.98739 15.994 7.97739 15.9355C7.96889 15.8879 8.00089 15.8427 8.04839 15.8343C8.09589 15.8259 8.14189 15.8576 8.15039 15.9047C8.16039 15.9612 8.1714 16.0173 8.1834 16.0728C8.1934 16.1199 8.16339 16.166 8.11589 16.1764C8.10989 16.1779 8.10389 16.1784 8.09739 16.1784ZM17.1845 15.3172C17.1835 15.3172 17.1825 15.3172 17.1815 15.3172C17.133 15.3157 17.095 15.275 17.097 15.227C17.099 15.1699 17.1 15.1129 17.1 15.0559C17.1 15.0078 17.1395 14.9686 17.188 14.9686C17.2365 14.9686 17.276 15.0078 17.276 15.0559C17.276 15.1154 17.275 15.1744 17.273 15.2329C17.2705 15.2805 17.2315 15.3172 17.1845 15.3172ZM7.98839 15.1407C7.93989 15.1407 7.90039 15.1015 7.90039 15.0534C7.90039 14.9939 7.90139 14.9349 7.90389 14.8759C7.90539 14.8278 7.94539 14.7901 7.99489 14.7921C8.04339 14.7936 8.08139 14.8343 8.07939 14.8824C8.07739 14.9389 8.07639 14.9959 8.07639 15.0534C8.07589 15.102 8.03689 15.1407 7.98839 15.1407ZM17.112 14.2809C17.07 14.2809 17.033 14.2512 17.0255 14.2091C17.0155 14.1525 17.0045 14.0965 16.9925 14.041C16.9825 13.9939 17.0125 13.9478 17.06 13.9374C17.107 13.9264 17.154 13.9572 17.1645 14.0043C17.177 14.0618 17.1885 14.1198 17.1985 14.1783C17.207 14.2259 17.175 14.271 17.1275 14.2795C17.1225 14.2805 17.117 14.2809 17.112 14.2809ZM8.09889 14.1034C8.09289 14.1034 8.08639 14.103 8.08039 14.1015C8.03289 14.0915 8.00289 14.0449 8.01289 13.9978C8.02539 13.9398 8.03889 13.8823 8.05339 13.8248C8.06539 13.7782 8.11289 13.7499 8.1599 13.7618C8.2069 13.7737 8.2354 13.8208 8.2234 13.8674C8.2094 13.9225 8.1964 13.978 8.18439 14.034C8.17589 14.0752 8.13939 14.1034 8.09889 14.1034ZM16.82 13.2789C16.7855 13.2789 16.7525 13.2586 16.7385 13.2249C16.7165 13.1718 16.694 13.1198 16.67 13.0677C16.65 13.0241 16.6695 12.972 16.714 12.9522C16.758 12.9323 16.8105 12.9517 16.8305 12.9958C16.855 13.0494 16.8785 13.1039 16.9015 13.1584C16.92 13.2031 16.8985 13.2536 16.8535 13.272C16.8425 13.2769 16.8315 13.2789 16.82 13.2789ZM8.4279 13.1123C8.4159 13.1123 8.4034 13.1098 8.3914 13.1044C8.3474 13.0846 8.3279 13.033 8.3479 12.9889C8.3729 12.9348 8.3984 12.8813 8.4249 12.8282C8.4469 12.7851 8.4994 12.7677 8.5429 12.7891C8.5864 12.8104 8.6039 12.8629 8.5824 12.9061C8.5569 12.9571 8.5319 13.0087 8.5079 13.0613C8.4934 13.0935 8.4614 13.1123 8.4279 13.1123ZM16.3185 12.3622C16.2905 12.3622 16.2635 12.3493 16.246 12.3245C16.213 12.2779 16.1795 12.2313 16.1455 12.1862C16.1165 12.1475 16.124 12.0929 16.163 12.0642C16.2015 12.0349 16.257 12.0429 16.286 12.0815C16.3215 12.1286 16.3565 12.1767 16.3905 12.2253C16.418 12.265 16.4085 12.319 16.3685 12.3468C16.353 12.3572 16.3355 12.3622 16.3185 12.3622ZM8.96541 12.2144C8.94691 12.2144 8.92841 12.209 8.91291 12.1971C8.87391 12.1683 8.86641 12.1133 8.89541 12.0751C8.93141 12.0275 8.96841 11.9809 9.00591 11.9348C9.03641 11.8976 9.09191 11.8916 9.12941 11.9224C9.16691 11.9526 9.17291 12.0077 9.14191 12.0448C9.10591 12.089 9.07041 12.1341 9.03591 12.1797C9.01841 12.2025 8.99191 12.2144 8.96541 12.2144ZM15.627 11.5758C15.606 11.5758 15.5845 11.5684 15.5675 11.553C15.525 11.5143 15.482 11.4766 15.4385 11.44C15.4015 11.4087 15.397 11.3537 15.4285 11.317C15.46 11.2803 15.5155 11.2758 15.5525 11.3071C15.598 11.3453 15.6425 11.3844 15.6865 11.4246C15.7225 11.4573 15.7245 11.5123 15.692 11.5475C15.6745 11.5664 15.651 11.5758 15.627 11.5758ZM9.68692 11.4553C9.66192 11.4553 9.63742 11.4449 9.61992 11.4246C9.58842 11.3879 9.59292 11.3329 9.62992 11.3016C9.67542 11.2635 9.72192 11.2258 9.76892 11.1891C9.80742 11.1593 9.86242 11.1663 9.89242 11.204C9.92242 11.2416 9.91592 11.2967 9.87742 11.3264C9.83242 11.3616 9.78742 11.3973 9.74392 11.4345C9.72742 11.4484 9.70742 11.4553 9.68692 11.4553ZM14.7765 10.9625C14.762 10.9625 14.747 10.959 14.7335 10.9511C14.6835 10.9233 14.633 10.8961 14.582 10.8698C14.539 10.848 14.522 10.7954 14.544 10.7523C14.566 10.7096 14.6195 10.6928 14.6625 10.7146C14.7155 10.7419 14.768 10.7696 14.82 10.7989C14.862 10.8227 14.877 10.8757 14.853 10.9174C14.837 10.9466 14.807 10.9625 14.7765 10.9625ZM10.5619 10.8757C10.5299 10.8757 10.4994 10.8584 10.4834 10.8281C10.4614 10.7855 10.4784 10.7329 10.5219 10.7111C10.5749 10.6843 10.6284 10.6586 10.6824 10.6333C10.7264 10.6129 10.7789 10.6318 10.7989 10.6754C10.8189 10.7191 10.8004 10.7711 10.7564 10.7909C10.7044 10.8147 10.6529 10.84 10.6019 10.8658C10.5889 10.8728 10.5754 10.8757 10.5619 10.8757ZM13.8065 10.5594C13.7985 10.5594 13.7905 10.5584 13.7825 10.5559C13.7275 10.5401 13.6715 10.5257 13.6155 10.5123C13.5685 10.5009 13.5395 10.4538 13.551 10.4072C13.5625 10.3606 13.6095 10.3318 13.657 10.3432C13.7155 10.3571 13.7735 10.3725 13.831 10.3888C13.8775 10.4022 13.9045 10.4503 13.891 10.4964C13.8795 10.5346 13.8445 10.5594 13.8065 10.5594ZM11.5475 10.5133C11.508 10.5133 11.4719 10.4865 11.4619 10.4464C11.4504 10.3998 11.4799 10.3526 11.527 10.3412C11.585 10.3274 11.6435 10.3145 11.702 10.3031C11.75 10.2932 11.796 10.3244 11.8055 10.3715C11.815 10.4186 11.784 10.4647 11.7365 10.4741C11.68 10.4855 11.624 10.4974 11.568 10.5108C11.5615 10.5123 11.5545 10.5133 11.5475 10.5133ZM12.7675 10.3948C12.7665 10.3948 12.765 10.3948 12.764 10.3948C12.707 10.3928 12.6495 10.3913 12.592 10.3913C12.5435 10.3913 12.504 10.3522 12.504 10.3041C12.504 10.256 12.5435 10.2168 12.592 10.2168C12.652 10.2168 12.7115 10.2183 12.771 10.2203C12.8195 10.2223 12.857 10.2629 12.8555 10.311C12.8535 10.3576 12.8145 10.3948 12.7675 10.3948Z" fill="#8EADFF"/>
<path d="M12.1376 15.8489C12.733 15.8489 13.2156 15.3703 13.2156 14.7799C13.2156 14.1895 12.733 13.7109 12.1376 13.7109C11.5422 13.7109 11.0596 14.1895 11.0596 14.7799C11.0596 15.3703 11.5422 15.8489 12.1376 15.8489Z" fill="url(#paint9_linear_1299_81106)"/>
<path d="M10.9541 17.0675L13.1951 10.7876C13.1951 10.7876 12.9026 10.3255 13.3206 9.89366C13.7386 9.46181 14.5112 7.12109 14.5112 7.12109C14.5112 7.12109 14.0097 9.73103 14.0517 10.0003C14.0937 10.2695 13.9957 10.8253 13.5501 10.9324L12.1361 14.7952L11.2526 17.2088L10.9541 17.0675Z" fill="url(#paint10_linear_1299_81106)"/>
<path d="M9.77024 13.9336L12.1373 14.7928L12.0113 15.1374L9.66624 14.2653C9.66624 14.2653 9.11323 14.6446 8.64272 14.1825C8.17222 13.7204 6.8252 13.002 6.8252 13.002C6.8252 13.002 8.49622 13.354 8.99773 13.2712C9.49874 13.1879 9.87475 13.6019 9.77024 13.9336Z" fill="url(#paint11_linear_1299_81106)"/>
<defs>
<linearGradient id="paint0_linear_1299_81106" x1="1.57497" y1="14.8474" x2="21.2526" y2="14.8474" gradientUnits="userSpaceOnUse">
<stop offset="0.2156" stop-color="#5069BE"/>
<stop offset="1" stop-color="#25375E"/>
</linearGradient>
<linearGradient id="paint1_linear_1299_81106" x1="15.4327" y1="2.51926" x2="16.8422" y2="2.51926" gradientUnits="userSpaceOnUse">
<stop offset="0.2156" stop-color="#5069BE"/>
<stop offset="1" stop-color="#25375E"/>
</linearGradient>
<linearGradient id="paint2_linear_1299_81106" x1="16.0897" y1="27.2233" x2="16.8419" y2="27.2233" gradientUnits="userSpaceOnUse">
<stop offset="0.2156" stop-color="#5069BE"/>
<stop offset="1" stop-color="#25375E"/>
</linearGradient>
<linearGradient id="paint3_linear_1299_81106" x1="14.8897" y1="28.9343" x2="17.3348" y2="28.9343" gradientUnits="userSpaceOnUse">
<stop stop-color="#686A80"/>
<stop offset="0.2201" stop-color="#6B6E84"/>
<stop offset="0.4558" stop-color="#767B91"/>
<stop offset="0.6988" stop-color="#8691A6"/>
<stop offset="0.9453" stop-color="#9EAEC3"/>
<stop offset="1" stop-color="#A4B6CB"/>
</linearGradient>
<linearGradient id="paint4_linear_1299_81106" x1="1.34269" y1="24.5125" x2="4.33177" y2="24.5125" gradientUnits="userSpaceOnUse">
<stop stop-color="#686A80"/>
<stop offset="0.2201" stop-color="#6B6E84"/>
<stop offset="0.4558" stop-color="#767B91"/>
<stop offset="0.6988" stop-color="#8691A6"/>
<stop offset="0.9453" stop-color="#9EAEC3"/>
<stop offset="1" stop-color="#A4B6CB"/>
</linearGradient>
<linearGradient id="paint5_linear_1299_81106" x1="18.1837" y1="2.6922" x2="19.5137" y2="2.6922" gradientUnits="userSpaceOnUse">
<stop stop-color="#686A80"/>
<stop offset="0.2201" stop-color="#6B6E84"/>
<stop offset="0.4558" stop-color="#767B91"/>
<stop offset="0.6988" stop-color="#8691A6"/>
<stop offset="0.9453" stop-color="#9EAEC3"/>
<stop offset="1" stop-color="#A4B6CB"/>
</linearGradient>
<linearGradient id="paint6_linear_1299_81106" x1="19.224" y1="1.71724" x2="19.7185" y2="0.418986" gradientUnits="userSpaceOnUse">
<stop stop-color="#7C879C"/>
<stop offset="0.3223" stop-color="#9FAABA"/>
<stop offset="0.7726" stop-color="#D5E0E8"/>
</linearGradient>
<linearGradient id="paint7_linear_1299_81106" x1="23.3944" y1="27.1038" x2="5.12101" y2="6.75431" gradientUnits="userSpaceOnUse">
<stop stop-color="#C0D1E0"/>
<stop offset="0.0382" stop-color="#C5D5E3"/>
<stop offset="0.2586" stop-color="#DFE7EF"/>
<stop offset="0.4874" stop-color="#F1F5F8"/>
<stop offset="0.7277" stop-color="#FBFCFD"/>
<stop offset="0.9987" stop-color="white"/>
</linearGradient>
<linearGradient id="paint8_linear_1299_81106" x1="17.3407" y1="3.74705" x2="19.6384" y2="3.74705" gradientUnits="userSpaceOnUse">
<stop stop-color="#21313E"/>
<stop offset="0.1912" stop-color="#293643"/>
<stop offset="0.3674" stop-color="#676771"/>
<stop offset="0.5849" stop-color="#394450"/>
<stop offset="0.6915" stop-color="#21313E"/>
<stop offset="0.9971" stop-color="#3D4653"/>
</linearGradient>
<linearGradient id="paint9_linear_1299_81106" x1="11.6868" y1="17.9093" x2="12.2424" y2="13.987" gradientUnits="userSpaceOnUse">
<stop stop-color="#686A80"/>
<stop offset="0.2201" stop-color="#6B6E84"/>
<stop offset="0.4558" stop-color="#767B91"/>
<stop offset="0.6988" stop-color="#8691A6"/>
<stop offset="0.9453" stop-color="#9EAEC3"/>
<stop offset="1" stop-color="#A4B6CB"/>
</linearGradient>
<linearGradient id="paint10_linear_1299_81106" x1="10.9539" y1="12.1648" x2="14.5109" y2="12.1648" gradientUnits="userSpaceOnUse">
<stop stop-color="#21313E"/>
<stop offset="0.1912" stop-color="#293643"/>
<stop offset="0.3674" stop-color="#676771"/>
<stop offset="0.5849" stop-color="#394450"/>
<stop offset="0.6915" stop-color="#21313E"/>
<stop offset="0.9971" stop-color="#3D4653"/>
</linearGradient>
<linearGradient id="paint11_linear_1299_81106" x1="6.82464" y1="14.0692" x2="12.137" y2="14.0692" gradientUnits="userSpaceOnUse">
<stop stop-color="#21313E"/>
<stop offset="0.1912" stop-color="#293643"/>
<stop offset="0.3674" stop-color="#676771"/>
<stop offset="0.5849" stop-color="#394450"/>
<stop offset="0.6915" stop-color="#21313E"/>
<stop offset="0.9971" stop-color="#3D4653"/>
</linearGradient>
</defs>
</svg>
