<svg width="20" height="20" viewBox="0 0 20 20" fill="none" xmlns="http://www.w3.org/2000/svg">
<path d="M15 5.96663C14.95 5.9583 14.8917 5.9583 14.8417 5.96663C13.6917 5.92496 12.775 4.98329 12.775 3.81663C12.775 2.62496 13.7334 1.66663 14.925 1.66663C16.1167 1.66663 17.075 2.63329 17.075 3.81663C17.0667 4.98329 16.15 5.92496 15 5.96663Z" stroke="#D4A437" stroke-width="1.5" stroke-linecap="round" stroke-linejoin="round"/>
<path d="M14.1417 12.0333C15.2834 12.225 16.5417 12.025 17.425 11.4333C18.6 10.65 18.6 9.36664 17.425 8.58331C16.5334 7.99164 15.2584 7.79163 14.1167 7.99163" stroke="#D4A437" stroke-width="1.5" stroke-linecap="round" stroke-linejoin="round"/>
<path d="M4.97503 5.96663C5.02503 5.9583 5.08336 5.9583 5.13336 5.96663C6.28336 5.92496 7.20002 4.98329 7.20002 3.81663C7.20002 2.62496 6.24169 1.66663 5.05003 1.66663C3.85836 1.66663 2.90002 2.63329 2.90002 3.81663C2.90836 4.98329 3.82503 5.92496 4.97503 5.96663Z" stroke="#D4A437" stroke-width="1.5" stroke-linecap="round" stroke-linejoin="round"/>
<path d="M5.83334 12.0333C4.69168 12.225 3.43335 12.025 2.55001 11.4333C1.37501 10.65 1.37501 9.36664 2.55001 8.58331C3.44168 7.99164 4.71668 7.79163 5.85834 7.99163" stroke="#D4A437" stroke-width="1.5" stroke-linecap="round" stroke-linejoin="round"/>
<path d="M9.99996 12.1917C9.94996 12.1834 9.89163 12.1834 9.84163 12.1917C8.69163 12.1501 7.77496 11.2084 7.77496 10.0417C7.77496 8.85006 8.7333 7.89172 9.92496 7.89172C11.1166 7.89172 12.075 8.85839 12.075 10.0417C12.0666 11.2084 11.15 12.1584 9.99996 12.1917Z" stroke="#D4A437" stroke-width="1.5" stroke-linecap="round" stroke-linejoin="round"/>
<path d="M7.57498 14.8167C6.39998 15.6 6.39998 16.8833 7.57498 17.6667C8.90831 18.5583 11.0916 18.5583 12.425 17.6667C13.6 16.8833 13.6 15.6 12.425 14.8167C11.1 13.9333 8.90831 13.9333 7.57498 14.8167Z" stroke="#D4A437" stroke-width="1.5" stroke-linecap="round" stroke-linejoin="round"/>
</svg>
