<svg width="20" height="20" viewBox="0 0 20 20" fill="none" xmlns="http://www.w3.org/2000/svg">
<path d="M6.98334 10.001L8.99167 12.0177L13.0167 7.98438" stroke="#495057" stroke-width="1.5" stroke-linecap="round" stroke-linejoin="round"/>
<path d="M8.95834 2.04063C9.53334 1.54896 10.475 1.54896 11.0583 2.04063L12.375 3.17396C12.625 3.39062 13.0917 3.56563 13.425 3.56563H14.8417C15.725 3.56563 16.45 4.29063 16.45 5.17396V6.59062C16.45 6.91562 16.625 7.39063 16.8417 7.64063L17.975 8.95729C18.4667 9.53229 18.4667 10.474 17.975 11.0573L16.8417 12.374C16.625 12.624 16.45 13.0906 16.45 13.424V14.8406C16.45 15.724 15.725 16.449 14.8417 16.449H13.425C13.1 16.449 12.625 16.624 12.375 16.8406L11.0583 17.974C10.4833 18.4656 9.54167 18.4656 8.95834 17.974L7.64167 16.8406C7.39167 16.624 6.925 16.449 6.59167 16.449H5.15C4.26667 16.449 3.54167 15.724 3.54167 14.8406V13.4156C3.54167 13.0906 3.36667 12.624 3.15834 12.374L2.03334 11.049C1.55 10.474 1.55 9.54063 2.03334 8.96563L3.15834 7.64063C3.36667 7.39063 3.54167 6.92396 3.54167 6.59896V5.16562C3.54167 4.28229 4.26667 3.55729 5.15 3.55729H6.59167C6.91667 3.55729 7.39167 3.38229 7.64167 3.16562L8.95834 2.04063Z" stroke="#495057" stroke-width="1.5" stroke-linecap="round" stroke-linejoin="round"/>
</svg>
