<svg width="20" height="20" viewBox="0 0 20 20" fill="none" xmlns="http://www.w3.org/2000/svg">
<path d="M15 5.96663C14.95 5.9583 14.8917 5.9583 14.8417 5.96663C13.6917 5.92496 12.775 4.98329 12.775 3.81663C12.775 2.62496 13.7333 1.66663 14.925 1.66663C16.1167 1.66663 17.075 2.63329 17.075 3.81663C17.0667 4.98329 16.15 5.92496 15 5.96663Z" stroke="#495057" stroke-width="1.5" stroke-linecap="round" stroke-linejoin="round"/>
<path d="M14.1417 12.0333C15.2833 12.225 16.5417 12.025 17.425 11.4333C18.6 10.65 18.6 9.36664 17.425 8.58331C16.5333 7.99164 15.2583 7.79163 14.1167 7.99163" stroke="#495057" stroke-width="1.5" stroke-linecap="round" stroke-linejoin="round"/>
<path d="M4.97503 5.96663C5.02503 5.9583 5.08336 5.9583 5.13336 5.96663C6.28336 5.92496 7.20002 4.98329 7.20002 3.81663C7.20002 2.62496 6.24169 1.66663 5.05003 1.66663C3.85836 1.66663 2.90002 2.63329 2.90002 3.81663C2.90836 4.98329 3.82503 5.92496 4.97503 5.96663Z" stroke="#495057" stroke-width="1.5" stroke-linecap="round" stroke-linejoin="round"/>
<path d="M5.83334 12.0333C4.69168 12.225 3.43335 12.025 2.55001 11.4333C1.37501 10.65 1.37501 9.36664 2.55001 8.58331C3.44168 7.99164 4.71668 7.79163 5.85834 7.99163" stroke="#495057" stroke-width="1.5" stroke-linecap="round" stroke-linejoin="round"/>
<path d="M9.99999 12.1917C9.94999 12.1834 9.89166 12.1834 9.84166 12.1917C8.69166 12.1501 7.77499 11.2084 7.77499 10.0417C7.77499 8.85006 8.73333 7.89172 9.92499 7.89172C11.1167 7.89172 12.075 8.85839 12.075 10.0417C12.0667 11.2084 11.15 12.1584 9.99999 12.1917Z" stroke="#495057" stroke-width="1.5" stroke-linecap="round" stroke-linejoin="round"/>
<path d="M7.57501 14.8168C6.40001 15.6001 6.40001 16.8835 7.57501 17.6668C8.90834 18.5585 11.0917 18.5585 12.425 17.6668C13.6 16.8835 13.6 15.6001 12.425 14.8168C11.1 13.9335 8.90834 13.9335 7.57501 14.8168Z" stroke="#495057" stroke-width="1.5" stroke-linecap="round" stroke-linejoin="round"/>
</svg>
