<svg width="20" height="21" viewBox="0 0 20 21" fill="none" xmlns="http://www.w3.org/2000/svg">
<path d="M10 13.3574C11.3807 13.3574 12.5 12.2381 12.5 10.8574C12.5 9.47671 11.3807 8.35742 10 8.35742C8.61929 8.35742 7.5 9.47671 7.5 10.8574C7.5 12.2381 8.61929 13.3574 10 13.3574Z" stroke="#495057" stroke-width="1.5" stroke-miterlimit="10" stroke-linecap="round" stroke-linejoin="round"/>
<path d="M1.66667 11.5908V10.1241C1.66667 9.25745 2.37501 8.54078 3.25001 8.54078C4.75834 8.54078 5.37501 7.47412 4.61667 6.16578C4.18334 5.41578 4.44167 4.44078 5.20001 4.00745L6.64167 3.18245C7.30001 2.79078 8.15001 3.02412 8.54167 3.68245L8.63334 3.84078C9.38334 5.14912 10.6167 5.14912 11.375 3.84078L11.4667 3.68245C11.8583 3.02412 12.7083 2.79078 13.3667 3.18245L14.8083 4.00745C15.5667 4.44078 15.825 5.41578 15.3917 6.16578C14.6333 7.47412 15.25 8.54078 16.7583 8.54078C17.625 8.54078 18.3417 9.24912 18.3417 10.1241V11.5908C18.3417 12.4575 17.6333 13.1741 16.7583 13.1741C15.25 13.1741 14.6333 14.2408 15.3917 15.5491C15.825 16.3074 15.5667 17.2741 14.8083 17.7075L13.3667 18.5325C12.7083 18.9241 11.8583 18.6908 11.4667 18.0325L11.375 17.8741C10.625 16.5658 9.39167 16.5658 8.63334 17.8741L8.54167 18.0325C8.15001 18.6908 7.30001 18.9241 6.64167 18.5325L5.20001 17.7075C4.44167 17.2741 4.18334 16.2991 4.61667 15.5491C5.37501 14.2408 4.75834 13.1741 3.25001 13.1741C2.37501 13.1741 1.66667 12.4575 1.66667 11.5908Z" stroke="#495057" stroke-width="1.5" stroke-miterlimit="10" stroke-linecap="round" stroke-linejoin="round"/>
</svg>
